<?xml version="1.0" encoding="UTF-8"?>
<svg id="Team_Collaboration_on_Documents" data-name="Team Collaboration on Documents" xmlns="http://www.w3.org/2000/svg" viewBox="0 0 3000 3000">
  <defs>
    <style>
      .cls-1 {
        fill: #010101;
      }

      .cls-2 {
        fill: #fece2e;
      }

      .cls-3 {
        fill: #fff;
      }
    </style>
  </defs>
  <g>
    <g>
      <path class="cls-3" d="M592.84,505.11c-20.6,1.12-33.93,22.02-26.51,41.27,86.74,225.05,95.8,409.85,91.36,524.73-7.29,188.61-56.76,337.46-113.62,508.55-104.86,315.51-173.46,349.82-195.26,524-14.86,118.74-7.28,297.09,114.72,530.54,5.33,10.2,16.12,16.41,27.62,16.07,577.26-16.9,1154.52-33.79,1731.79-50.69,24.35-.71,37.94-28.41,23.52-48.05-144.41-196.74-280.14-459.78-226.39-733.59,26.45-134.73,87.3-213.63,139-304.47,118.83-208.81,222.92-539.9,150.24-1073.79-2.12-15.56-15.92-26.86-31.61-26.01-561.62,30.48-1123.24,60.96-1684.86,91.44Z"/>
      <path class="cls-1" d="M592.05,502.26c-60.48,9.72-13.56,89.01-3.44,121.23,21.18,67.44,37.02,136.38,48.09,206.19,46.33,292.23-14.62,501.29-106.48,770.28-88.04,257.83-168.13,342.72-188.23,503.7-20.23,162.05,16.38,321.4,85.02,471.76,10.81,23.68,20.87,63.01,44.49,76.81,23.97,14.01,70.77,3.56,97.29,2.79,165.22-4.78,1566.57-46.82,1606.38-47.95,23.48-.66,58.11,6.09,75.08-14.69,27.73-33.97-22.82-76.77-50.39-118.77-167.56-255.15-255.3-545.44-115.5-816.8,44.57-86.5,100.16-165.82,139.12-255.38,125.71-288.94,137.62-618.73,98.6-932.73-2.74-22.02-2.18-48.53-25.11-59.95-25.13-12.51-63.86-1.82-90.97-.39-43.82,2.31-298.73,16.17-382.38,20.76-983.44,53.87-1096.06,57.17-1230.79,73.86-2.65.33-2.83,4.22,0,4.27,131.32,2.02,69.84,2.69,1410.03-69.36,79.67-4.28,159.33-8.66,238.99-13.11,28.15-1.57,49.84-5.91,60.15,27.74,5.24,17.12,4.91,38.23,6.94,56.16,38.76,342.5,14.4,697-153.71,996.45-57.88,103.09-120.85,197.66-142.96,316.21-69.49,372.68,219.19,712.18,228.83,733.33,12.25,26.87-6.36,37.97-30.11,39.15-54.07,2.69-99,1.53-1695.96,48.76-25.39.75-40.92-2.65-53.61-27.71-97.53-192.63-151.03-423.9-78.7-627.34,48.22-135.62,109.53-192.12,221.75-575.34,82.26-280.92,76.36-535.61-3.19-780.69-9.58-29.51-55.48-114.24-7.67-123.53,3.77-.73,2.12-6.29-1.57-5.7Z"/>
    </g>
    <g>
      <path class="cls-3" d="M2046.09,1712.95c-65.57,197-41.97,410.44,41.27,560.71,91,164.29,118.07,205.14,118.07,205.14,24.03,36.14,50.22,72.61,36.94,97.88-3.11,5.91-13.45,20.86-92.25,28.67-52.75,5.23-97.92,3.48-132.01.22,9.41,17.69,18.97,42.8,16.3,71.84-2.7,29.33-15.69,38.95-13.24,50.75,8.91,42.79,200.78,36.24,282.41,33.09,371.57-14.32,431.16-29.03,444.2-68.4,5.24-15.83,5.52-43.39-30.89-89.72,121.42,7.72,167.01-32.14,183.86-51.48,96.72-111-44.83-358.68-123.55-496.42-71.77-125.58-131.28-229.69-222.1-235.34-95.81-5.95-133.13,103.47-234.97,109.58-75.84,4.55-166.71-49.46-274.04-216.52Z"/>
      <path class="cls-1" d="M2042.95,1712.08c-65.34,182.98-48.6,402.13,38.2,561.31,32.92,60.37,92.98,167.01,119,207.2,23.41,36.14,49.55,68.93,37.39,93.55-12.08,24.47-131.84,34.17-219.43,25.86-4.46-.42-6.59,4.97-4.81,8.38,13.39,25.54,20.49,55.29,12.84,83.76-5.01,18.65-28.47,43.11,15.48,60.43,64.62,25.47,231.65,15.44,293.94,12.88,81.27-3.33,271.39-9.94,352.97-29.13,22.57-5.31,50-13.69,60.84-34.19,17.48-33.05-6.19-73.15-29.06-102.42-1.14,2.75-2.28,5.49-3.41,8.24,53.96,3.16,114.82-.17,161.36-31.01,157.86-104.58-39.42-429.94-137.71-593.97-30.82-51.43-72.45-116.89-123.39-148.06-45.89-28.08-95.73-28.18-145.72,4.62-63.8,41.86-129.7,130.92-253.1,54.63-53.3-32.95-95.62-82.75-132.1-132.9-12.13-16.68-25.72-32.91-36.88-50.23-2.64-4.1-9.22-.29-6.56,3.84,11.01,17.09,17.93,37.45,67.82,97.16,46.11,55.18,108.51,112.68,179.77,122.35,126.17,17.13,165.97-118.84,269.07-108.94,58.69,5.64,101.39,55.54,133.31,100.45,45.62,64.19,147.42,243.09,189.06,340.84,88.67,208.16,61.84,345.91-164.94,331.57-4.66-.29-5.72,5.27-3.41,8.24,19.01,24.56,39.12,56.46,29.05,85.89-.24.7-1.14,2.81-.64,1.7-3.44,7.71-8.03,12.41-14.45,16.59-49.9,32.48-280.61,39.02-353.45,42.18-56.17,2.44-296.53,17.4-341.27-17.51-21.45-16.74,35.1-47.21-9.81-132.64-1.6,2.79-3.2,5.58-4.81,8.38,49.14,4.6,190.09,6.04,223.58-24.81,23.96-22.07-.29-61.88-13.41-82.69-18.91-29.99-20.47-25.99-105.69-177.78-50.18-89.37-83.2-150.21-101.1-268.98-17.56-116.51-6.6-230.36,27.76-343.06,1.24-4.05-4.89-5.63-6.28-1.73Z"/>
    </g>
    <g>
      <path class="cls-3" d="M2236.9,1585.55c-17.87,20.44-21.95,42.87-25.54,64.21-19.05,113.24-28.11,170.33-4.96,192.89,7.56,7.37,22.01,17.56,49.9,19.93,32.56,27.62-19.87,92.76.43,122.38,16.43,23.97,79.44,23.4,102.4-5.18,24.8-30.87-14.78-83,2.13-223.74,24.17,3.14,42.19-13.83,42.27-27.71.08-13.88-17.75-31.04-41.95-28.18,5.39-106.71-54.22-195.21-124.68-114.62Z"/>
      <path class="cls-1" d="M2234.85,1583.5c-24.98,25.12-27.6,62.56-35.65,112.57-6.09,37.88-21.73,117.38.66,145.99,10.72,13.69,29.91,21.28,47.25,23.96,4.58.71,10.02-.63,14,11.69,11.98,37.02-48.32,108.3,17.85,126.15,24.94,6.73,56.39,2.68,76.7-14.06,39.96-32.94-7.46-83.52,10.32-233.75l-4.74,4.74c19.35,2.01,46.92-9.51,47.03-32.45.11-22.95-27.34-34.74-46.72-32.97,1.6,1.6,3.19,3.19,4.79,4.79,5.3-114.71-59.78-200.62-133.11-118.27-4.4,4.95,2.89,12.27,7.29,7.29,35.07-39.63,63.97-36.07,85.21-11.22,27.53,32.2,32.87,81.64,31.03,122.2-.11,2.42,2.29,5.02,4.79,4.79,13.88-1.28,37.31,5.68,37.19,23.39-.12,17.72-23.65,24.39-37.5,22.96-2.75-.28-4.47,2.42-4.74,4.74-15.46,131.53,17.23,185.39,2.63,215.12-14.92,30.4-74.91,33.23-94.97,15.3-22.04-19.69,10.38-65.8,7.44-101.69-.71-8.65-4.51-21.73-13.03-26.12-4.95-2.55-24.09-.15-43.41-14.43-13.32-9.85-16.93-24.81-17.81-40.69-1.69-30.53,3.67-61.63,8.31-91.69,9.97-64.63,12.14-94.92,33.73-124.84,1.95-2.71-2.28-5.79-4.55-3.51Z"/>
    </g>
    <path class="cls-1" d="M1112.95,756.14c18.24,9.99,39.24,5.49,59.51,4.82,27.7-.92,360-14.98,415.39-17.37,50.72-2.18,106.48,1.65,156.12-9.22,8.25-1.81,5.26-12.64-1.83-13.54-53.39-6.71-112.37,2.88-166.16,5.38-463.52,21.5-448.13,19.4-463.03,29.36-.2.13-.23.44,0,.57h0Z"/>
    <path class="cls-1" d="M860.72,997.27c335.07-8.1,583.79-16.74,931.54-28.25,261.08-8.64,259.1-4.98,300.23-13.09,7.52-1.48,4.7-11.45-1.66-12.25-50.55-6.35-104.41.73-155.26,2.55-445.41,15.86-717.37,24.94-1074.85,40.87-6.51.29-6.58,10.33,0,10.17Z"/>
    <path class="cls-1" d="M791.33,1203.15c335.07-8.1,583.79-16.74,931.54-28.25,261.08-8.64,259.1-4.98,300.23-13.09,7.52-1.48,4.7-11.45-1.66-12.25-50.55-6.35-104.41.73-155.26,2.55-445.41,15.86-717.37,24.94-1074.85,40.87-6.51.29-6.58,10.33,0,10.17Z"/>
    <path class="cls-1" d="M791.33,1437.19c335.07-8.1,583.79-16.74,931.54-28.25,261.08-8.64,259.1-4.98,300.23-13.09,7.52-1.48,4.7-11.45-1.66-12.25-50.55-6.35-104.41.73-155.26,2.55-445.41,15.86-717.37,24.94-1074.85,40.87-6.51.29-6.58,10.33,0,10.17Z"/>
    <path class="cls-1" d="M691.99,1693.92c335.07-8.1,583.79-16.74,931.54-28.25,261.08-8.64,259.1-4.98,300.23-13.09,7.52-1.48,4.7-11.45-1.66-12.25-50.55-6.35-104.41.73-155.26,2.55-445.41,15.86-717.37,24.94-1074.85,40.87-6.51.29-6.58,10.33,0,10.17Z"/>
    <path class="cls-1" d="M612.57,1950.64c335.07-8.1,583.79-16.74,931.54-28.25,261.08-8.64,259.1-4.98,300.23-13.09,7.52-1.48,4.7-11.45-1.66-12.25-50.55-6.35-104.41.73-155.26,2.55-445.41,15.86-717.37,24.94-1074.85,40.87-6.51.29-6.58,10.33,0,10.17Z"/>
    <path class="cls-1" d="M595.95,2243.35c335.07-8.1,583.79-16.74,931.54-28.25,261.08-8.64,259.1-4.98,300.23-13.09,7.52-1.48,4.7-11.45-1.66-12.25-50.55-6.35-104.41.73-155.26,2.55-445.41,15.86-717.37,24.94-1074.85,40.87-6.51.29-6.58,10.33,0,10.17Z"/>
    <g>
      <path class="cls-3" d="M357.63,1074.53c-99.98,121.17-191.58,96.29-227.25,167.68-69.05,138.2,149.93,478.41,408.17,498.18,79.36,6.07,143.62-19.56,194.15-39.71,175.6-70.04,273.8-202.02,315.5-266.96-16.18-18.39-32.36-36.77-48.54-55.16-149.23,57.72-298.46,115.43-447.7,173.15,121.15-330.65,132.44-690.75,27.45-1031.36,120.32-11.37,240.64-22.74,360.96-34.1,15.53-16.32,31.07-32.63,46.6-48.95-121.14-28.21-220.03-37.77-289.58-40.91-77.31-3.49-147.77-.38-191.95,47.15-22.85,24.59-27.5,44.37-35.3,218.42-6.05,134.94-11.05,203.19-24.27,246-28.67,92.85-77.66,153.74-88.25,166.57Z"/>
      <path class="cls-1" d="M354.65,1071.55c-107.25,127.37-207.4,91.04-236.42,186.6-48.72,160.46,199.7,517.84,479.59,486.62,60.77-6.78,139.23-36.92,192.37-64.34,108.27-55.86,197.56-142.58,262.77-243.93,1.38-2.15.72-4.89-.86-6.68-51.52-58.58-49.78-58.19-53.91-56.59-116.34,44.96-414.82,160.32-447.73,173.04l6.95,6.95c122.14-333.99,131.86-694.42,27.13-1034.27-1.71,2.24-3.42,4.49-5.13,6.73,66.68-6.35,361.52-34.84,362.66-35.38,5.28-2.46,10.59-10.57,14.57-14.77,11.12-11.73,22.25-23.45,33.37-35.18,2.14-2.25,1.36-6.45-1.9-7.2-94.48-21.74-191.4-34.9-288.2-40.17-47.37-2.58-95.8-5.63-141.57,9.72-26.41,8.86-52.43,26.04-67.83,49.74-24.14,37.16-21.06,132.59-31.33,303.43-5.24,87.13-8.26,137.44-43.34,212.88-16.5,35.48-37.76,71.17-62.64,101.36-5.09,6.18,3.73,15.09,8.86,8.86,17.5-21.23,32.82-44.27,46.29-68.24,45.45-80.86,53.52-128.8,59.83-205.56,14.86-180.81,6.06-311.12,35.8-350.52,74.29-98.4,361.79-41.27,481.85-13.19-.63-2.4-1.27-4.8-1.9-7.2-9.47,9.91-37.21,38.95-41.61,43.55-6.67,6.98.32,3.2-362.9,37.23-3.3.31-6.22,3.16-5.13,6.73,100.3,327.3,98.12,683.69-27.78,1028.44-1.41,3.85,3.04,8.46,6.95,6.95,116.32-45.02,414.76-160.53,447.66-173.27-1.79-.47-3.59-.95-5.38-1.42,16.18,18.38,32.37,36.76,48.55,55.14l-.86-6.68c-97.6,151.88-237.13,251.45-393.87,292.98-293.92,77.88-546.72-275.78-525.33-441.66,14.55-112.87,122.75-66.19,236.37-204.73,3.4-4.15-2.45-10.13-5.96-5.96Z"/>
    </g>
    <g>
      <path d="M341.45,1079.31c-103.32,128.27-212.64,94.2-257.4,191.21-21.53,46.67-23.62,117.8,2.94,170.62,24.29,48.31,70.07,76.38,69.13,130.91-.3,17.12-2,32.12,8.83,45.6,16.63,20.71,41.87,8.48,72.07,28.24,30.91,20.22,25.86,47.03,45.6,51.48,34.04,7.67,58.13-58.55,188.27-181.2,27.03,11.85,54.05,23.7,81.08,35.55,210.86-203.14,176.96-535.05,71.53-807.02-122.56-68.18-165.64-76.17-176.14-63.24-13.43,16.53,22.56,71.92-1.47,95.61-8.06,7.94-33.21,13.77-26.68,54.67.61,3.86-2.46,39.75-8.62,111.54-4.82,56.22-38.89,98.51-69.13,136.05Z"/>
      <path class="cls-1" d="M339.6,1077.47c-113.63,132.4-224.75,90.74-265.11,205.41-14.8,42.03-15.21,90.69-2.11,133.19,15.41,49.97,46.02,72.49,66.02,107.22,15.56,27.02,13.12,42.28,13.22,62.94.25,49.6,38.61,48.69,54.44,51.9,49.78,10.09,51.53,45.31,64.89,57.67,12.56,11.61,29.3,5.33,40.84-3.91,27.09-21.68,54.01-65.72,131.51-143.11,10.04-10.03,20.24-19.89,30.55-29.64-1.7.22-3.4.44-5.11.66,85.13,37.25,82.99,37.9,86.14,34.84,167.67-162.5,180.95-402.82,128.99-628.53-17.96-78.02-53.86-180.5-58.45-184.76-1.09-1.01-81.34-45.68-128.01-61.56-97.8-33.28-37.36,49.31-49.17,84.98-2.48,7.48-7.7,10.77-13.75,14.98-17.04,11.87-22.7,29.08-20.14,49.51,1.25,9.94.43,12.13-4.85,74.26-5.74,67.63-3.13,88.14-71.2,172.67-3.54,4.39,2.68,10.69,6.26,6.26,27.64-34.32,54.27-68.01,65.59-111.01,5.7-21.62,13.58-129.74,13.56-137.05-.02-8.44-2-16.47-.21-24.94,4.27-20.16,19.99-22.03,27.87-31.87,34-42.49-64.66-137.16,70.1-79.99,25.66,10.89,50.77,23.36,75.22,36.71,6.94,3.79,16.21,7.2,22.22,12.3,4.74,4.02,6.59,14.05,8.79,19.92,99.28,265.34,125.02,585.38-78.7,782.26,1.68-.22,3.35-.43,5.03-.65-85.06-37.36-82.89-38.02-86.15-34.94-125.96,118.78-152.6,184.26-182.46,180.49-13.45-1.7-17.55-19.08-23.84-28.8-11.69-18.05-30.32-29.76-51.17-34.36-17.37-3.83-42.16-2.3-48.86-29.03-4.62-18.44,3.31-33.64-6.25-61.61-12.87-37.64-45.5-64.06-63.61-98.89-21.09-40.55-24.86-90.58-14.98-134.81,30.55-136.76,157.24-82.59,266.97-225.54,1.8-2.34-2.18-5.41-4.11-3.17Z"/>
    </g>
    <g>
      <path class="cls-3" d="M236.35,755.04c25.64,8.92,40.28,26.4,53.96,43.18,72.57,89,108.68,134.13,99.72,165.19-2.92,10.14-10.44,26.14-33.51,42-14.63,40.11,63.15,70.79,60.16,106.58-2.42,28.96-57.46,59.63-91.56,46.15-36.82-14.56-28.21-79.45-112.52-193.4-19.45,14.68-43.5,8.85-50.44-3.17-6.93-12.02.07-35.76,22.52-45.24-57.46-90.08-49.43-196.48,51.66-161.29Z"/>
      <path class="cls-1" d="M234.89,757.54c34.44,15.68,48.25,38.59,77.15,74.43,19.54,24.23,39.45,48.54,56.14,74.88,8.95,14.12,19.78,31.51,18.62,48.99-1.16,17.51-16.11,33.61-30.24,44.01-4.77,3.51-5.94,7.78-6.34,13.64-2.98,43.75,78.73,71.74,58.55,108.37-12.79,23.21-47.16,38.35-72.94,34.36-44.93-6.96-29.48-72.01-119.14-193.87-1.41-1.92-4.23-3.31-6.49-1.7-11.4,8.12-38.65,14.42-44.99-3.9-5.34-15.44,9.19-30.57,21.89-36.29,2.31-1.04,2.99-4.54,1.72-6.55-53.42-84.58-52.12-187.56,46.16-153.9,6.29,2.15,9.01-7.82,2.74-9.95-105.12-35.63-118.19,72.25-57.17,168.68.57-2.18,1.15-4.37,1.72-6.55-17.43,7.86-33.96,29.63-25.33,49.47,9.71,22.32,41.82,18.75,58.05,7.17-2.16-.57-4.32-1.13-6.49-1.7,84.26,114.32,75.34,177.97,113.5,194.7,25.53,11.19,57.79-.44,78.35-16.83,65.34-52.09-42.55-88.22-41.11-130.2.3-8.82,1.71-6.92,5.04-9.47,17-13.04,25.87-26.74,29.78-39.66,11.16-36.88-40.63-96.14-66.1-127.99-38.11-47.67-57.97-76.36-90.85-85.43-3.06-.84-5.29,3.9-2.23,5.29Z"/>
    </g>
    <g>
      <path class="cls-3" d="M702.52,735.96c34.76,180.86,33.36,174,277.82,134.42,21.81-3.53,54.5-9.16,73.15,9.19,21.57,21.22,11.39,61.76,22.59,63.85,8.33,1.55,19.75-19.78,25.03-33.6,8.73-22.82,2.86-30.72,7.88-44.55,12.64-34.83,64.13-24.1,88.72-57.87,14.6-20.05,10.43-45.48,2.09-96.34-10.96-66.87-17.2-104.97-44.18-131.54-36.4-35.85-90.41-30.89-180.14-21.3-85.03,9.09-258.04,27.58-279.78,112.87-3.22,12.63.13,30.04,6.82,64.87Z"/>
      <path class="cls-1" d="M700.41,735.96c4.05,31.09,15.14,92.04,28.73,120.3,21.65,45.01,65.8,44.49,115.47,39.24,139.95-14.77,202.78-49.59,216.89,10.32,2.67,11.33,1.31,24.49,5.81,35.27,4.24,10.15,14.41,8.24,20.98,1.36,10.66-11.15,18.12-28.4,21.42-43.33,2.85-12.89-.23-27.21,7.43-38.73,16.95-25.48,80.31-18.93,93.21-67.61,6.06-22.85-1.29-58.51-8-99.06-10.05-60.75-18.39-116.73-75.76-139.29-43.55-17.13-117.26-6.57-183.26,1.35-56,6.72-113.34,15.17-166.06,36.09-40.25,15.98-91.71,46.65-87.81,96.87,1.27,16.34,4.96,32.54,8.09,48.59,1.27,6.52,11.17,3.75,9.94-2.74-7.87-41.52-24.8-82.14,47.94-120.62,63.87-33.79,153.53-42.87,233.64-51.06,62.31-6.37,127.92-16.06,164.84,22.71,25.79,27.08,31.76,72.48,40.29,124.14,5.15,31.19,12.86,67.84,3.23,87.96-18.49,38.64-76.15,26.2-92.24,63.36-8,18.47,2.36,27.99-15.11,60.79-18.05,33.9-14.36,8.88-17.43-10.61-2.11-13.45-6.67-27.3-17.17-36.58-23.46-20.73-59.44-11.76-87.09-7.21-214.27,35.23-226.82,41.25-255.69-96.1-2.54-12.06-5.1-24.02-8.16-35.96-.57-2.23-4.46-1.85-4.14.56Z"/>
    </g>
    <path class="cls-2" d="M2134.74,1262.4c2.78,218.06,2.78,209.77-290.21,222.13-26.13,1.1-65.4,2.36-82.66,28.09-19.96,29.76,1.51,74.36-10.99,79.45-9.29,3.79-27.62-18.23-37.05-33-15.56-24.39-10.64-34.95-19.76-49.8-22.96-37.39-80.13-12.67-116.7-45.99-21.71-19.78-22.94-50.27-25.39-111.25-3.23-80.17-5.06-125.85,19.9-163.1,33.68-50.26,97.51-57.38,203.88-67.64,100.79-9.72,305.88-29.5,351.42,64.24,6.74,13.88,7.01,34.88,7.55,76.87Z"/>
    <g>
      <path d="M2365.8,1699.08c-10.49-1.27-13.78,7.53-25.27,8.22-20.36,1.21-37.46-25.91-50.19-46.11-9.89-15.69-23.24-40.71-32.07-75.2-22.23,35.12-74.32,124.97-65.91,207.23,1.5,14.63,6.13,59.88,30.8,68.91,13.86,5.07,26.09-4.22,35.44,2.65,12.72,9.34,6.85,38.81.3,61.37-16.18-8.64-48.62-26.5-81.09-48.6-18.12-12.33-31.91-25.94-29.62-48.21,4.03-39.1-14.76-228.76,44.88-287.15,20.7-20.27,56.86-27.24,78.55-8.03,11.66-28.22,49.33-38.5,78.01-28.03,59.93,21.87,74.4,97.63,104.57,144.9,51.84,81.21,105.9,36.55,128.52,66.93,11.48,15.42,3.47,41.09,18.11,53.56,8.16,6.95,20,6.57,30.49,8.76,41.3,8.64,60.04,57.45,35.14,91.51-67.98-54.54-110.92-58.16-138.38-49.29-27.73,8.96-53.98,35.27-127.14,77.31-32.98,18.95-50.86,14.35-56.94-23.2-6.94-42.8,5.07-88.1,17.25-120.56,12.52.19,24.08-5.01,28.82-14.19,8.78-17.02-9.38-40.98-24.27-42.79Z"/>
      <path class="cls-1" d="M2365.8,1696.81c-18.67-1.64-28.35,31.44-67.07-28.89-16.61-25.88-29.35-52.98-37.18-82.84-.76-2.91-4.68-3.23-6.21-.81-28.91,45.86-53.75,96.61-63.37,150.33-6.64,37.12-6.06,114.56,28.23,129.84,16.95,7.55,35.7-7.16,41.26,10.44,4.96,15.69-1.37,35.26-5.72,50.4,1.6-.65,3.2-1.3,4.8-1.95-22.9-12.24-70.69-40.27-88.65-54.35-26.82-21.02-19.67-35.68-19.62-58.08.17-70.98-8.55-227.25,48.67-271.18,19.15-14.7,48.74-19.86,68.35-3.25,1.42,1.21,4.23,1.43,5.14-.66,14.61-33.45,69.45-46.81,111.4-.86,44.15,48.35,50.02,129.12,108.68,161.3,34.64,19,66.67,5.27,82.72,20.6,15.32,14.64,4.83,40.72,19.87,55.87,9.72,9.79,24.48,8.34,36.82,11.76,35.96,9.95,51.9,52.59,28.96,85.23,2.16-.28,4.32-.56,6.48-.84-143.47-113.54-169.37-20.81-279.23,32.15-28.76,13.86-39,1.39-43.06-29.96-4.91-37.96,4.42-78.11,17.6-114.05-1.15.88-2.3,1.75-3.45,2.63,17.37-.26,36.18-10.3,34.45-30.1-1.3-14.96-13.82-31.01-29.06-33.52-4.01-.66-5.73,5.47-1.69,6.14,11.5,1.9,20.95,14.02,23.34,24.92,3.73,16.98-12.43,25.34-27.04,25.42-1.69,0-2.88,1.13-3.45,2.63-15.32,40.59-26.62,88.12-15.79,131.25,8.74,34.79,31.25,33.92,62.15,16.24,84.01-48.05,109.21-81.05,151.05-79.71,40.5,1.29,77.99,27.45,108.33,51.83,2.2,1.77,4.82,1.5,6.48-.84,25.42-35.6,5.28-87.99-37.78-96.92-13.79-2.86-29.96-1.97-35.53-17.79-6.45-18.31,1.99-51.51-37.63-56.61-29.26-3.77-66.76,4.33-103.72-55.97-23.19-37.84-34.38-82.98-64.83-116.31-44.4-48.58-105.46-35.1-121.74,2.23,1.71-.22,3.43-.44,5.14-.66-30.98-26.23-75.83-7.21-95.49,23.32-40.83,63.4-32.89,200.19-33.96,278.38-.36,26.55,23.12,41.65,42.86,54.56,22.64,14.81,46.06,28.12,69.91,40.87,1.87,1,4.2.13,4.8-1.95,6.13-21.34,15.28-59.77-5.8-67.14-14.78-5.17-41.34,16.71-55.34-35.58-21.22-79.22,16.41-167.32,60.28-236.6l-6.21-.81c8.41,32.33,22.41,62.22,41.24,89.75,39.2,57.28,54.82,24.05,69.56,24.71,2.95.13,2.87-4.28,0-4.53Z"/>
    </g>
    <path class="cls-1" d="M2310.88,1823.12c-8.17,3.82-24.87,27.44-45.65,33.59-6.27,1.85-12.96.76-19.07,3-2.24.82-3.86,4.14-1.57,5.96,10.83,8.65,41.46,2.01,63.04-31.47,1.93-3,4.34-6.13,5.12-9.66.25-1.13-.86-1.89-1.86-1.43h0Z"/>
    <path class="cls-1" d="M2375.83,1725.65c-.25-3.76-4.29-4.68-8.18-5.16,1.46.18-1.84-.4-3.92-.12-4.6.62-9.9,2.93-12,6.89-2.1,3.96,2.35,8.48,6.61,5.1-.15.12-.3.23-.46.35,1.54-1.11,1.4-1.2,2.3-2.02,1.02-.92.7-.47.23-.23.61-.31,1.8-1.41,3.62-2.05,6.39-2.22,6.59-.29,9.47-.68-.73.1.6.12,1.29-.52.27-.24.34-.28.21-.14.47-.3.86-.84.82-1.43h0Z"/>
    <path class="cls-1" d="M2250.74,1695.5c-4.83,3.63,7.42,23.09-6.31,57.09-1.73,4.29-4.75,8.75-5.32,13.39-1.47,12.04,13.68,13.39,13.64,5.43,0-1.39-1.29-2.99-2.81-2.81-10.66,1.27,9.78-14.22,8.55-49.12-.23-6.52-3.63-27.06-7.74-23.97h0Z"/>
    <path class="cls-1" d="M2279.87,1707.23c2.46-.35,11.17-11.07,26.1-8.28,1.33.25,2.91.65,4.26.28,1.59-.44,2.81-1.87,2.37-3.56-1.47-5.69-16.33-4.4-22.41-2.03-15.6,6.07-15.53,14.34-10.31,13.59h0Z"/>
    <path class="cls-1" d="M2237.63,1708.81c-4.51-8.21-30.51-19.01-37.47-14.77-1.44.88-1.95,3.17-.56,4.38,2.43,2.11,6.11,2.33,9.14,2.97,15.66,3.32,21.45,9.18,26.53,10.49,1.79.46,3.24-1.47,2.36-3.07h0Z"/>
    <g>
      <path d="M183.15,912.65c8.96-2.17,14.58,6.32,22.83,2.69,8.82-3.88,11.14-17.28,11.54-21.55,1.06-11.32-1.37-18.79-15.37-85.66,5.47,2.4,11.15,4.84,17.12,4.74,5.97-.09,12.33-3.46,13.92-9.21,1.27-4.59-.08-10.77,4.05-13.12,3.11-1.77,6.89.25,10.42.82,6.05.97,10.93-1.91,24.17-8.37,3.32-1.62,6.66-3.25,9.69-5.35,7.87-5.46,16.62-30.3,11.63-56.78-.83-4.38-7.01-34.55-34.86-54.38-3.21-2.29-33.12-23.16-47.57-13.03-10.05,7.04-3.08,22.39-16.21,36.02-6.55,6.8-9.57,4.33-25.19,12.41-54.02,27.96-38.76,42.39-49.59,61.37-4.4,7.7-12.3,12.58-19.19,18.17-24.38,19.77-37.89,52.18-34.78,83.42,5.59,56.13,71.29,94.46,94.56,79.58,12.52-8.01,9.65-28.57,22.82-31.75Z"/>
      <path class="cls-1" d="M183.76,914.88c8.25-1.11,14.58,6.48,22.99,3.27,6.05-2.3,9.6-8.27,11.71-14.06,5.25-14.43,2.52-24.77-13.41-96.76l-3.7,3.7c11.4,4.79,31.42,8.78,34.9-8.2.46-2.25-.18-7.16,1.41-8.79,2.79-2.85,8.8.34,12.24.35,5.27.02,10.24-2.55,14.88-4.76,15.94-7.58,21.82-8.22,27.88-24.18,13.31-35.06,0-78.39-33.08-101.9-12.36-8.78-39.95-24.82-53.24-10.06-4.06,4.51-4.56,10.78-5.69,16.46-4.49,22.64-16.64,22.1-26.23,26.32-14.73,6.47-38.82,20.44-47.2,35.6-3.3,5.96-4.39,12.42-5.92,18.97-3.13,13.44-12.39,20.08-22.72,28.58-34.23,28.17-47.15,79.7-24.08,120.09,21.93,38.39,66.81,59.13,86.7,47.24,13.68-8.18,10.5-28.01,22.63-31.66,3.11-.93,1.78-5.83-1.34-4.88-10.1,3.09-11.93,13.31-15.72,21.87-12.53,28.31-53.91,5.89-75.12-17.6-32.24-35.7-29.8-84.03-2.68-117.53,8.93-11.03,22.22-17.53,30.76-28.66,8.39-10.93,6.61-25.51,14.33-36.69,9.35-13.54,35.31-27.73,48.98-32.6,3.74-1.33,7.43-2.46,10.62-4.91,10.44-8.01,10.99-19.37,14.27-30.97,4.06-14.35,20.85-9.52,30.85-4.81,64.15,30.2,60.41,104.19,39.43,118-6.77,4.45-15.5,8.84-23.24,11.35-9.15,2.97-21.47-8.48-23.91,11.07-1.91,15.33-17.15,11.37-27.39,6.79-2.43-1.09-4.95.69-4.42,3.4,8.39,42.44,26.55,98.24,4.23,104.22-6.12,1.64-10.44-4.79-20.95-2.73-2.98.59-1.63,4.84,1.23,4.46Z"/>
    </g>
    <path class="cls-1" d="M183.4,949.64c4.48-.92,7.93-4.06,16.14-5.13,9.22-1.2,12.83,1.3,17.37,1.41,3.64.09,4.3-4.52,1.72-6.36-7.7-5.5-32.17-2.62-37.98,6.5-1.22,1.91.79,3.99,2.76,3.59h0Z"/>
    <path class="cls-1" d="M289.55,1009.44c18.95,14.46,76.44,4.69,76.73-10.28.01-.66-.38-1.38-.97-1.69-5.16-2.72-11.82,1.61-16.59,3.4-28.69,10.78-48.57,4.18-58.09,4.6-2.26.1-2.72,2.73-1.08,3.98h0Z"/>
    <path class="cls-1" d="M276.73,853.82c-.26,4.65,6.35,14.47,9.15,18.19,11.9,15.8,24.28,22.21,30.3,26.75-.98-.74.92.59,2.34,2.24-.91-1.06.51-.07-.06,1.16-.5,1.09-1.63,1.51-2.36,2.43-1.15,1.45-1.48,3.5,0,4.92,5.41,5.22,14.43-4.16,10.07-12.43-3.47-6.58-19-12.42-31.05-24.77-4.54-4.66-9.01-10.71-11.63-14.6-1.29-1.91-2.37-3.98-4.33-5.28-1.08-.71-2.36.25-2.43,1.39h0Z"/>
    <path class="cls-1" d="M333.64,935.55c-4.1,8.02-8.55,13.93-17.55,14.1-2.61.05-4.2,2.85-2.94,5.12,10.08,18.13,36.09,14.22,36.94,4.03.1-1.25-1.09-2.08-2.18-2.18-2.79-.26-5.53,1.85-8.59,2.78-8.34,2.54-16.37-1.31-20.3-8.07-.98,1.71-1.96,3.41-2.94,5.12,12.46-.83,21.35-12.21,19.47-20.65-.19-.86-1.51-1.04-1.91-.25h0Z"/>
    <path class="cls-1" d="M266.9,879.05c-.95-3.59-16.27-4.21-27.6,8-10.41,11.22-3.29,15.15-.08,12.32,3.89-3.44,3.69-7.83,12.53-12.98,8.27-4.82,15.91-4.47,15.16-7.34h0Z"/>
    <path class="cls-1" d="M302.12,854.21c0-8.34,2.51-15.58,9.12-20.88-.66.53,3.42-1.94,2.8-5.32v1.29c.61-1.52-.08-2.71-1.69-2.98.36.21.71.42,1.07.62-5.94-4.7-21.26,13-16.18,27.94.88,2.58,4.88,2.25,4.88-.66h0Z"/>
    <path class="cls-1" d="M312.9,846.84c8.49,0,8.5-13.19,0-13.19s-8.5,13.19,0,13.19Z"/>
    <path class="cls-1" d="M261.23,884.44c-.12-.17-.23-.33-.31-.52.24.56.47,1.12.71,1.68-.07-.16-.12-.33-.15-.5.08.59.16,1.18.24,1.78-.02-.16-.03-.32,0-.48l-.23,1.69c.02-.15.06-.29.11-.43-.2.48-.41.96-.61,1.44.05-.12.11-.23.19-.34-.3.39-.6.78-.9,1.17.09-.12.2-.23.32-.33-.37.28-.74.57-1.11.85.04-.02.07-.04.11-.06-.43.18-.86.36-1.29.54.2-.08.4-.14.62-.17l-1.36.18c.22-.03.43-.03.65,0l-1.29-.17c.29.04.6.13.87.24-.35-.15-.7-.29-1.04-.44.14.06.28.14.41.23-.27-.21-.55-.42-.82-.64.62.49,1.73,1.69,3.48,1.3,3.9-.18,6.05-7.94-1.6-10.99.43.18.87.37,1.3.55-6.54-3.07-12.18,2.03-12.19,7.17.03,9.86,14.88,9.86,14.91,0,0-1.35-.34-2.6-1.02-3.76h0Z"/>
    <path class="cls-1" d="M2253.14,1804.33c6.28,4.64,22.78,1.37,31.47-10.82l-5.42-.71c2.44,8.91-1.22,18.5-9.48,23.26-4.87,2.81-7,1.71-9.33,3.92-1.14,1.08-.84,3.06.49,3.83,7.05,4.07,30.24-10.45,24.03-32.59-.72-2.57-4.02-2.77-5.42-.71-8.09,11.93-20.68,10.27-26.05,11.5-1.16.27-1.11,1.71-.3,2.31h0Z"/>
    <path class="cls-1" d="M755.12,673.46c54.76,54.53,104.25,18.27,91.23-12.42-9.57-22.55-35.44-17.75-30.3-11.16,38.07,48.83,105.93,32.75,106.9,1.69.41-13.28-13.58-28.18-27.21-22.63-1.01.41-1.74,1.54-1.06,2.61,52.67,83.82,111.19,26.82,87,.62-14.67-15.9-36.38-5.63-31.89-.87,33.16,35.21,107.38,47.59,157.36,15.61,2.69-1.72.31-5.84-2.51-4.29-39.1,21.49-82.01,22.2-118.14,6.64-12.69-5.47-23.15-13.09-34.13-21.31.14,1.12.29,2.24.43,3.35,8.72-10.06,26-4.95,29.6,7.44,3.32,11.4-3.91,23.11-13.81,28.4-30.3,16.2-54.99-17.38-71.12-37.74-.12.93-.24,1.86-.36,2.79,13.04-7.7,30.45,11.79,18.19,28.34-16.06,21.69-66.51,23.47-95.76-14.15-.36,1.38-.73,2.76-1.09,4.13,20.89-7.83,41.39,31.44,6.21,44.23-26.26,9.56-47.76-9.71-68.32-22.87-.97-.62-2.01.78-1.22,1.57h0Z"/>
    <path class="cls-1" d="M775.18,739.08c54.76,54.53,104.25,18.27,91.23-12.42-9.57-22.55-35.44-17.75-30.3-11.16,38.07,48.83,105.93,32.75,106.9,1.69.41-13.28-13.58-28.18-27.21-22.63-1.01.41-1.74,1.54-1.06,2.61,52.67,83.82,111.19,26.82,87,.62-14.67-15.9-36.38-5.63-31.89-.87,33.16,35.21,107.38,47.59,157.36,15.61,2.69-1.72.31-5.84-2.51-4.29-39.1,21.49-82.01,22.2-118.14,6.64-12.69-5.47-23.15-13.09-34.13-21.31.14,1.12.29,2.24.43,3.35,8.72-10.06,26-4.95,29.6,7.44,3.32,11.4-3.91,23.11-13.81,28.4-30.3,16.2-54.99-17.38-71.12-37.74l-.36,2.79c13.04-7.7,30.45,11.79,18.19,28.34-16.06,21.69-66.51,23.47-95.76-14.15-.36,1.38-.73,2.76-1.09,4.13,20.89-7.83,41.39,31.44,6.21,44.23-26.26,9.56-47.76-9.71-68.32-22.87-.97-.62-2.01.78-1.22,1.57h0Z"/>
    <path class="cls-1" d="M790.62,813.92c54.76,54.53,104.25,18.27,91.23-12.42-9.57-22.55-35.44-17.75-30.3-11.16,38.07,48.83,105.93,32.75,106.9,1.69.41-13.28-13.58-28.18-27.21-22.63-1.01.41-1.74,1.54-1.06,2.61,52.67,83.82,111.19,26.82,87,.62-14.67-15.9-36.38-5.63-31.89-.87,33.16,35.21,107.38,47.59,157.36,15.61,2.69-1.72.31-5.84-2.51-4.29-39.1,21.49-82.01,22.2-118.14,6.64-12.69-5.47-23.15-13.09-34.13-21.31.14,1.12.29,2.24.43,3.35,8.72-10.06,26-4.95,29.6,7.44,3.32,11.4-3.91,23.11-13.81,28.4-30.3,16.2-54.99-17.38-71.12-37.74-.12.93-.24,1.86-.36,2.79,13.04-7.7,30.45,11.79,18.19,28.34-16.06,21.69-66.51,23.47-95.76-14.15-.36,1.38-.73,2.76-1.09,4.13,20.89-7.83,41.39,31.44,6.21,44.23-26.26,9.56-47.76-9.71-68.32-22.87-.97-.62-2.01.78-1.22,1.57h0Z"/>
    <path class="cls-1" d="M1628.5,1234.59c21.14,22.78,54.89,54.06,88.25,34.89,12.33-7.09,21.75-21.55,17.64-36.09-7.01-24.79-37.36-22.45-32.48-17.09,21.36,23.47,61.96,43.34,93.48,29.46,14.03-6.18,25.43-22.57,20.03-38.22-4.43-12.83-21.34-20.38-33.1-12.7-.63.41-1.13,1.29-.84,2.07,14.63,39.37,69.53,52.04,98.35,25.05,9.99-9.35,17.8-26.3,7.99-38.53-6.57-8.19-20.21-12.15-28.11-3.56-13.79,14.99,2.42,48,64.97,49.14,33.88.62,70.07-11.42,92.62-37.56,1.29-1.49-.66-3.43-2.16-2.16-73.78,62.95-166.76,26.91-154.47-3.32,4.59-11.29,19.27-7.33,24.74.99,11.59,17.62-14.5,51.11-54.71,44.14-32.86-5.7-46.01-32.15-45.15-34.04,1.85-4.06,13.11-1.62,15.71-.42,10.42,4.78,14.32,16.17,10.73,26.77-11.49,33.86-72.25,29.63-107.87-9.32l-.69,2.61c15.59-4.18,30.35,10.9,28.09,26.32-2.17,14.85-15.38,25.39-29.62,27.81-29.21,4.96-52.83-19.32-71.42-38.22-1.26-1.29-3.19.66-1.97,1.97h0Z"/>
    <path class="cls-1" d="M1627.59,1317.99c21.14,22.78,54.89,54.06,88.25,34.89,12.33-7.09,21.75-21.55,17.64-36.09-7.01-24.79-37.36-22.45-32.48-17.09,21.36,23.47,61.96,43.34,93.48,29.46,14.03-6.18,25.43-22.57,20.03-38.22-4.43-12.83-21.34-20.38-33.1-12.7-.63.41-1.13,1.29-.84,2.07,14.63,39.37,69.53,52.04,98.35,25.05,9.99-9.35,17.8-26.3,7.99-38.53-6.57-8.19-20.21-12.15-28.11-3.56-13.79,14.99,2.42,48,64.97,49.14,33.88.62,70.07-11.42,92.62-37.56,1.29-1.49-.66-3.43-2.16-2.16-73.78,62.95-166.76,26.91-154.47-3.32,4.59-11.29,19.27-7.33,24.74.99,11.59,17.62-14.5,51.11-54.71,44.14-32.86-5.7-46.01-32.15-45.15-34.04,1.85-4.06,13.11-1.62,15.71-.42,10.42,4.78,14.32,16.17,10.73,26.77-11.49,33.86-72.25,29.63-107.87-9.32-.23.87-.46,1.74-.69,2.61,15.59-4.18,30.35,10.9,28.09,26.32-2.17,14.85-15.38,25.39-29.62,27.81-29.21,4.96-52.83-19.32-71.42-38.22-1.26-1.29-3.19.66-1.97,1.97h0Z"/>
    <path class="cls-1" d="M1651.26,1397.8c21.14,22.78,54.89,54.06,88.25,34.89,12.33-7.09,21.75-21.55,17.64-36.09-7.01-24.79-37.36-22.45-32.48-17.09,21.36,23.47,61.96,43.34,93.48,29.46,14.03-6.18,25.43-22.57,20.03-38.22-4.43-12.83-21.34-20.38-33.1-12.7-.63.41-1.13,1.29-.84,2.07,14.63,39.37,69.53,52.04,98.35,25.05,9.99-9.35,17.8-26.3,7.99-38.53-6.57-8.19-20.21-12.15-28.11-3.56-13.79,14.99,2.42,48,64.97,49.14,33.88.62,70.07-11.42,92.62-37.56,1.29-1.49-.66-3.43-2.16-2.16-73.78,62.95-166.76,26.91-154.47-3.32,4.59-11.29,19.27-7.33,24.74.99,11.59,17.62-14.5,51.11-54.71,44.14-32.86-5.7-46.01-32.15-45.15-34.04,1.85-4.06,13.11-1.62,15.71-.42,10.42,4.78,14.32,16.17,10.73,26.77-11.49,33.86-72.25,29.63-107.87-9.32-.23.87-.46,1.74-.69,2.61,15.59-4.18,30.35,10.9,28.09,26.32-2.17,14.85-15.38,25.39-29.62,27.81-29.21,4.96-52.83-19.32-71.42-38.22-1.26-1.29-3.19.66-1.97,1.97h0Z"/>
    <path class="cls-3" d="M962.85,1446.62c-15.03-25.4-8.47-51.97.68-88.95,4.84-19.57,10.67-41.95,26.35-46.22,22.73-6.2,37.07,20.95,16.28,48.59,14.62,2.94,29.31-6.09,38.65-17.71,10.22-12.71,8.15-25.46,22.74-38.45,28.55-25.43,47.11-1.95,69.58,29.67,16.81,23.66,25.21,35.49,26.38,50.31,3.91,49.53-70.57,111.66-136.82,101.85-6.71-.99-45.12-7.43-63.84-39.08Z"/>
    <path class="cls-1" d="M954.25,1399.92c1.62-.11,3.47-.32,4.27-2.02,20.5-43.61,24.78-75.62,35.66-77.87,7.77-1.6,9.08,11.88,9.58,16.75,1.11,10.96-.42,21.78-3.95,32.17-1.3,3.81,2.9,8.18,6.78,6.78,48.02-17.45,75.77-61.16,75.4-76.85-.09-3.6-4.7-5.81-7.32-3.03-5.6,5.92-8.31,14.61-12.64,21.52-13.33,21.31-33.84,38.62-58.36,47.74,2.26,2.26,4.52,4.52,6.78,6.78,5.45-16.45,7.34-44.86-3.08-56.84-7.43-8.54-19.01-6.4-25.96,1.49-6.02,6.83-8.44,17.04-11.54,25.35-6.51,17.49-13.44,35.02-18.56,52.97-.72,2.52,1.66,5.15,2.96,5.06Z"/>
    <path class="cls-1" d="M1011.26,1483.14c14.71,8.69,74.57,5.66,119.59-28.04,9.47-7.08,24.22-17.32,25.32-30.23.13-1.5-1.56-2.56-2.88-2.2-17.52,4.82-39.62,50.85-122.08,53.03-6.23.16-13-1.09-19.05.57-3.12.86-3.67,5.22-.9,6.86h0Z"/>
    <path class="cls-1" d="M1085.08,1434.14c6.04,2.39,20.67-4,26.19-6.63,17.67-8.42,32.18-22.08,42.33-38.01,4.69-7.37,10.21-16.89,7.81-25.97-.25-.93-1.35-1.11-2.02-.53-10.1,8.69-9.41,22.17-30.63,41.79-24.34,22.49-38.64,20.11-44.49,26.3-1.01,1.07-.46,2.55.8,3.05h0Z"/>
    <path class="cls-1" d="M1076.62,1405.04c6.07,6.2,41.88-12.32,58.48-43.47,2.65-4.98,9.51-19.33,7.88-25.43-.65-2.41-4.07-3.54-5.83-1.54-3.71,4.24-8.76,38.05-44.91,59.2-1.66.97-18.02,8.79-15.62,11.23h0Z"/>
    <path class="cls-1" d="M1114.99,1325.19c1.38-3.65,2.61-8.22-.1-11.52-.55-.67-1.62-.85-2.41-.64-3.67.98-5.43,5.18-6.66,8.4-16.14,42.29-46.38,60.68-48.96,69.15-1.89,6.19,38.56-13.61,58.14-65.39Z"/>
    <path class="cls-3" d="M884.38,485.01c-5.23-7.08-4.17-19.82,2.21-26.2,6.95-6.95,16.63-2.76,32.54-4.96,17.63-2.44,26.47-10.44,38.61-16.93,36.4-19.46,95.58-21.67,115.83,4.24,11.82,15.13,14.53,58.29-.55,79.7-30.01,42.59-113.35,45.31-131.57,15.1-3.37-5.59-8.07-18.21,2.79-43.74-5.74.27-13.81.48-23.45.15-21.17-.71-31.85-1.19-36.41-7.36Z"/>
    <path class="cls-1" d="M963.03,437.98c-9.99-2.26-33.79,3.06-45.01,5.37-13.01,2.68-29.02,5.18-34.21,11.29-5.6,6.6-2.37,15.73,3.66,20.91,12.84,11.02,37.89,16.67,56.54,16.11-1.33-2.32-2.66-4.64-3.99-6.95-16.88,24.71-4.3,61.73,13.17,67.1,3.13.96,6.29-2.88,4.39-5.71-2.88-4.28-7.16-7.26-9.96-11.69-8.38-13.27-9.15-31.14.39-45.04,1.99-2.9-.65-7.05-3.99-6.95-10.68.3-21.18-1.11-31.34-4.47-7.15-2.36-21.31-6.74-22.44-15.55-.1-.76.74-2.05.3-1.04,2.98-6.82,57.93-10.72,72.72-21.64.61-.45.64-1.54-.23-1.74h0Z"/>
    <path class="cls-1" d="M972.21,434.96c18.28,3.53,69.32-12.03,86.11-5.28,16.63,6.68,21.69,39.64,21.14,57.84-.55,18.04-4.64,22.16-2.19,28.59.55,1.43,2.46,2.79,3.98,1.62,12.53-9.61,12.72-77.86-14.73-95.1-14.95-9.39-36.39-3.93-65.58,1.34-9.55,1.72-20.59,2.83-29.18,7.51-1.37.75-1.17,3.17.46,3.48h0Z"/>
    <path class="cls-1" d="M1042.04,461.67c3.87,19.62,7.23,36.4,2.64,57.9-2.97,13.93-3.42,15.57-1.56,18.77,1.11,1.92,7.54.02,11.34-16.07,6.01-25.4,1.7-48.91-6.91-62.92-1.84-3-6.17-.98-5.51,2.32h0Z"/>
    <path class="cls-1" d="M1007.84,477.26c-.35,8.54,3.87,25.92-.65,48.98-1.04,5.32-3.86,11.16-3.23,16.58.3,2.56,3.25,4.27,5.32,2.2,7.58-7.54,13.02-51.14,2.52-68.84-1.1-1.86-3.88-1.01-3.97,1.08h0Z"/>
    <path class="cls-1" d="M978.65,489.1c-1.51,4.12-1.24,22.74-6.66,51.37-2.41,12.71-3.68,14.09-1.63,16.8,1.13,1.49,2.76,2.06,4.51,1.18,2.8-1.4,3.04-3.99,3.63-6.77,3.15-14.7,9.12-53.57,6.51-62.58-.95-3.29-5.27-2.96-6.36,0h0Z"/>
    <path class="cls-3" d="M2294.59,2113.59c-30.3-32.34-47.02-49.91-75.53-67.17-19.79-11.98-68.88-38.8-70.26-15.71-1.5,25.03,48.15,52.44,54.72,56-6.12,1.52-25.37,7.13-37.47,25.39-23.17,34.96-.11,109.43,17.95,107.82,6.03-.54,7.37-11.2,13.57-11.03,8.16.22,6.85,18.66,19.94,26.3,10.21,5.96,21.87,1.09,49.21,1.27,12.43.08,18.42,3.68,23.33,5.52,11.88,4.44,51.64-25.95,51.76-61.09.02-6.21-1.18-18.14-47.24-67.3Z"/>
    <g>
      <path class="cls-3" d="M2830.36,2364.47c-19.54-41.6-61.74-71.66-107.44-76.54-28.4-3.03-60.66,1.94-82.4-16.59-10.79-9.19-17.29-23.17-29.51-30.33-15.77-9.24-35.56-4.37-53.84-4.44-81.27-.32-138.84-101.24-194.43-84.47-19.7,5.94-31.8,25.19-42.13,42.98-11.37,19.58-22.87,39.47-28.6,61.38-5.73,21.91-5.07,46.48,6.86,65.72,20.8,33.55,68.01,41.34,92.27,72.48,15.49,19.88,20.39,47.87,40.33,63.29,23.07,17.83,57.48,11.99,82.35,27.21,16.56,10.14,26.41,28.04,39.21,42.64,23.03,26.25,50.69,34.96,78.79,47.58,20.74,9.31,49.41,20.15,85.07,27.74"/>
      <path class="cls-1" d="M2830.9,2364.15c-17.58-38.44-52.88-67.23-94.19-76.45-21.61-4.82-43.92-2.49-65.62-6.38-34.45-6.18-36.61-25.9-53.28-39.41-29.25-23.71-56.15,6.88-116.41-24.71-59.43-31.15-118.12-107.28-167.12-48.79-15.09,18.01-27.14,40.69-36.8,61.98-9.69,21.36-15.65,44.73-11.64,68.22,7.61,44.67,50.73,57.94,83.19,81.04,22.15,15.76,26.31,28.96,37.56,51.4,29.65,59.16,70.79,35.67,106.14,58.32,20.15,12.91,30.53,36.7,48.34,52.32,16.95,14.87,37.41,23.78,57.9,32.58,35.29,15.16,56.81,24.22,96.83,32.88,5.22,1.13,7.45-6.89,2.21-8.03-22.85-4.94-45.3-11.58-67.06-20.15-59.29-23.35-79.32-33.28-108.18-70.7-41.96-54.4-75.64-28.03-108.73-53.54-30.09-23.2-16.67-55.64-72.08-89.48-45.88-28.01-106.63-49.01-40.28-164.82,10.32-18.01,22.15-40.06,43.88-45.66,46.46-11.98,97.68,63.74,163.37,81.75,25.88,7.1,39.7,2.58,57.36,2.38,32.58-.37,36.3,22.51,54.1,36.29,30.63,23.72,72.86,5.69,118.35,24.32,29.71,12.17,55.6,34.57,71.09,65.27.37.74,1.43.09,1.09-.64h0Z"/>
    </g>
    <path class="cls-1" d="M2556.55,2040.8c4.25,18.77,53.1,95.62,85.29,232.32,1.28,5.44,9.65,3.14,8.37-2.31-34.73-148.24-99.18-254.35-93.67-230.01h0Z"/>
    <path class="cls-1" d="M2168.7,2190.64c.07-1.8.96-3.7.65-3.09,2.01-3.86,7.43-5.19,11.75-5.55,18.29-1.55,25.62,6.65,30.04,7.33,2.97.45,6.18-2.48,4.24-5.51-2.88-4.49-14.41-8.1-19.17-9.05-25.87-5.17-37.59,8.91-31.77,17.04,1.3,1.81,4.17,1.23,4.26-1.15h0Z"/>
    <path class="cls-1" d="M2159.05,2159.36c5.43-3.2,9.4-7.75,21.18-6.52,10.57,1.1,17.37,6.07,23.62,7.15,2.79.48,5.84-3.1,3.11-5.35-.99-.81-1.76-1.68-2.93-2.28-15.3-7.73-40.79-11.53-47.93,4.06-.85,1.85.95,4.12,2.94,2.94h0Z"/>
    <path class="cls-1" d="M2155.69,2133.82c6.64-2.77,11.46-5.95,22.64-6.67,7.88-.51,15.94.91,22.97,4.6,2.3,1.21,8.69,4.16,9.2-.56,1.01-9.29-39.6-20.22-57.07-1.26-1.42,1.54-.04,4.86,2.27,3.89h0Z"/>
    <path class="cls-1" d="M2294.97,2249.08c.18-6.15-6.44-10.05-11.54-12.13-25.08-10.2-52.68,13.2-74.57-16.4-3.1-4.19-5.81-8.4-10.63-10.83-14.26-7.21-24.24,11.86-13.22,16.2,2.03.8,4.86-1.28,4.58-3.49-.17-1.4-.89-3.24-.06-4.51,1.99-3.07,6.46-.04,8.08,1.6,4.06,4.11,11.6,21.01,32.24,24.58,15.96,2.76,35.24-4.18,49.27-1.04,5.55,1.24,15.72,10.31,15.85,6.03h0Z"/>
    <path class="cls-1" d="M2339.35,2165.34c-25.53-34.9-127.78-125.73-165.68-141.65-25.59-10.75-42.37,14.5-21.78,33.12,15.12,13.68,32.51,25.33,48.71,37.64.73-2.7,1.46-5.41,2.2-8.11-34.96,2.88-40.43,24.74-34.44,23.46,9.59-2.05,12.85-13.15,34.44-14.76,4.56-.34,5.59-5.49,2.2-8.11-47.23-36.47-53.88-38.96-53.65-48.24.86-35.61,97.74,47.64,123.13,70.99,32.51,29.89,48.27,47.74,62.23,58.32,1.53,1.16,3.78-1.13,2.66-2.66h0Z"/>
    <path class="cls-1" d="M2469.61,1860.26c2.57,23.33,29.76,33.57,48.59,21.16-.93-.93-1.86-1.86-2.79-2.79-4.66,10.85-.05,24.76,11.48,29.12,11.97,4.52,25.27-3.71,28.28-15.68h-4.52c3.06,11.12,15,19.03,26.5,15.73,11.52-3.3,17.46-16.47,14.09-27.52l-4.15,2.42c16.43,21.25,53.98,11.61,53.28-16.97-.05-2.2-3.67-2.92-4.02-.54-4.09,27.61-32.06,31.69-45.74,14-1.56-2.02-4.83.18-4.15,2.42,2.59,8.5-1.67,18.73-10.61,21.42-8.94,2.69-18.24-3.66-20.67-12.2-.62-2.17-3.97-2.29-4.52,0-2.25,9.3-12.21,16.06-21.75,13-9.69-3.11-13.32-14.86-9.77-23.62.66-1.63-1.6-3.26-2.99-2.3-17.71,12.21-39.32,1.97-44.82-17.88-.25-.91-1.82-.77-1.71.23h0Z"/>
    <path class="cls-1" d="M2008.24,1922.11c17.99,20.95,55.22,6.96,53.62-24.19-.91.52-1.82,1.05-2.74,1.57,20.13,13.48,46.82-3.01,43.94-27.04-1.16.48-2.33.96-3.49,1.45,17.5,15.32,42.07.77,40.42-17.68-.18-1.97-3.43-2.81-3.77-.51-1.14,7.87-3.62,14.49-11.16,18.32-7.6,3.87-16.24,2.5-22.6-3.02-1.17-1.02-3.73-.47-3.49,1.45,2.62,21.17-20.05,35.39-38.01,23.9-1.11-.71-2.83.21-2.74,1.57,1.82,25.2-25.22,42.1-48.93,23.14-.74-.59-1.68.31-1.05,1.05h0Z"/>
    <path class="cls-1" d="M2255.14,2069.26c-2.52-22.94,21.72-32.51,35.16-16.93,1.25,1.45,3.21.13,3.39-1.4,1.23-10.23,9.92-19.16,20.48-19.47,10.14-.29,18.79,7.24,21.28,16.77.48,1.84,3.01,2.09,3.97.52,11.51-18.9,39.48-8.43,36.75,13.23-.25,2.02,2.45,2.63,3.69,1.53,18.28-16.21,44.32,3.93,33.26,25.7-.71,1.41.15,3.26,1.86,3.23,24.5-.43,39.1,27.64,23.81,47.18-1.14,1.45-.16,4.44,2.08,3.57,12.02-4.68,27.07.51,32.14,12.84,5.18,12.59-2.17,26.12-13.65,31.9-2,1.01-.6,4.47,1.55,3.67,14.19-5.33,21.98-22.84,16.27-37.01-5.77-14.33-23.37-21-37.44-15.52.69,1.19,1.39,2.38,2.08,3.57,17.45-22.29,1.77-54.99-26.84-54.5.62,1.08,1.24,2.16,1.86,3.23,5.54-10.9,3.39-25.12-6.6-32.81-10-7.69-24.23-6.27-33.42,1.88l3.69,1.53c3.33-26.38-30.53-38.87-44.82-15.42,1.32.17,2.65.35,3.97.52-7.34-28.1-46.73-26.01-49.93,3.85,1.13-.47,2.26-.94,3.39-1.4-15.62-17.64-46.82-3.93-40.45,20.07.35,1.33,2.64,1.12,2.48-.34h0Z"/>
    <path class="cls-1" d="M2093.09,2273.75c22.34-28.78,53.44-9.21,49.63,16-.32,2.13,2.09,3.14,3.4,1.43,15.85-20.65,47.82-6.12,42.19,19.68-.39,1.79,1.32,2.89,2.88,2.21,28.1-12.24,56.74,16.53,44.25,44.56-.5,1.11-.2,2.78,1.24,3.05,31.1,5.82,37.41,44.21,11.53,60.26-1.51.94-1.29,2.79,0,3.77,13.19,10.02,18.84,28.97,11.92,44.32-6.58,14.58-22.53,22.71-38.13,21.04-3.21-.34-3.24,4.77,0,5.06,18.03,1.61,36.43-9.06,43-26.17,6.62-17.26-.12-37.07-14.58-48v3.77c29.68-18.5,21.23-61.78-12.63-68.03.41,1.02.83,2.04,1.24,3.05,14.57-32.92-17.28-64.33-49.82-50.05.96.74,1.92,1.48,2.88,2.21,6.44-29.94-30.38-47.24-49.18-22.6,1.13.48,2.26.95,3.4,1.43,2.09-14.12-5.81-29.05-19.82-33.57-12.92-4.16-30.39,2.31-34.71,15.82-.23.71.82,1.4,1.31.76h0Z"/>
    <path class="cls-1" d="M2508.21,2485.35c-21.65,6.48-24.9,39.49.05,49.53v-4.23c-29.36,12.11-25.18,52.35,5.21,58.51l-.53-4.06c-25.01,10.98-21.33,47.12,5.12,53.26v-4.29c-17.05,4.06-28.78,23.2-22.86,40.17,5.67,16.23,25.6,24.41,41.23,18.08-.94-.71-1.88-1.43-2.81-2.14.91,28.62,35.32,42.56,55.83,22.51-1.24-.33-2.48-.65-3.72-.98,4.53,20.56,27.96,35.98,48.55,28.8,2.38-.83,1.44-4.32-1.04-3.78-18.94,4.09-38.91-6.65-43.22-26.2-.37-1.67-2.57-2.1-3.72-.98-17.7,17.3-47.45,5.42-48.24-19.37-.04-1.3-1.41-2.71-2.81-2.14-13.28,5.37-30.08-.75-35.52-14.44-5.86-14.76,4.64-31.7,19.51-35.24,2.11-.5,2.13-3.79,0-4.29-22.92-5.32-25.45-35.73-4.05-45.13,1.74-.76,1.25-3.7-.53-4.06-25.34-5.14-29.64-39.89-5.23-50,2.05-.85,2.09-3.39,0-4.23-17.09-6.86-21.52-31.18-.14-42.75,1.39-.75.44-3-1.07-2.55h0Z"/>
    <path class="cls-1" d="M2611.38,2564.28c-13.71-18.79,1.15-45.49,24.92-39.94.93.22,2.16-.28,2.34-1.33,5.04-28.24,37.62-40.98,60.49-23.72,1.06.8,2.69-.06,2.98-1.21,3.22-12.64,15.01-22.61,28.38-22.15,13.74.47,25.24,12,26.84,25.41.19,1.63,2.35,3.13,3.69,1.53,7.35-8.84,21.05-11.93,30.85-5.05,9.53,6.68,11.73,20.29,6.18,30.14-1.35,2.39,1.63,4.27,3.57,2.75,17.26-13.56,41.31,2.18,36.29,23.37-.57,2.4,2.18,3.8,3.96,2.3,13.28-11.19,30.59,6.75,19,19.65-2.1,2.33,1.35,5.8,3.45,3.45,6.47-7.24,7.3-18.81.24-26.09-7.06-7.28-18.68-6.6-26.03-.36l3.96,2.3c6.08-25.98-23.27-44.28-44.07-27.84,1.19.92,2.38,1.83,3.57,2.75,6.43-11.48,4.09-26.87-6.44-35.2-11.36-8.99-28.59-6.11-37.56,4.76,1.23.51,2.46,1.02,3.69,1.53-1.85-15.07-13.74-28.04-29.23-29.48-15.84-1.47-30.43,10.05-34.23,25.14.99-.4,1.99-.81,2.98-1.21-24.85-18.63-60.86-4.36-66.22,26.21.78-.44,1.56-.89,2.34-1.33-26.07-6.01-46.42,24.5-27.85,45.09.91,1.01,2.74-.35,1.92-1.48h0Z"/>
    <path class="cls-1" d="M2492.98,2219.74c-9.2,3.53-11.65,16.32-7.37,24.57,4.99,9.61,17.06,12.42,26.46,8.05-.86-.86-1.73-1.73-2.59-2.59-18.82,29.9,10.84,64.89,43.21,51.45-.83-.63-1.66-1.26-2.49-1.89-2.54,36.79,42.94,54.26,65.69,24.15-1.24-.16-2.49-.33-3.73-.49,4.79,13.05,18.19,22.21,32.32,20.12,14.12-2.09,24.34-14.74,25.09-28.65-1.17.49-2.35.97-3.52,1.46,17.75,18.53,46.09-1.13,35.11-24.32-1.1-2.33-4.56-.3-3.46,2.02,8.69,18.37-14.8,34.04-28.74,19.38-1.3-1.36-3.42-.25-3.52,1.46-.69,11.87-9.52,22.68-21.53,24.5-12.01,1.82-23.69-5.87-27.82-17.06-.64-1.74-2.66-1.92-3.73-.49-19.68,26.14-60.5,11.52-58.24-22.09.08-1.16-1.34-2.37-2.49-1.89-29.57,12.34-55.74-18.89-38.89-45.75,1.09-1.73-.99-3.33-2.59-2.59-13.87,6.47-32.84-7.59-16.5-28.19.38-.48.05-1.45-.68-1.17h0Z"/>
    <path class="cls-1" d="M2750.47,2016.69c-7.4-11.48-24.13-15.15-35.34-6.77-11.47,8.58-12.2,25.7-3.44,36.33l1.43-3.45c-13.7.29-26.45,11.24-26.95,25.38-.51,14.18,11.25,25.9,24.9,27.3l-1.36-3.27c-9.02,10.3-10.47,26.3-1.84,37.39s24.62,13.62,36.85,7.34c-1.03-.79-2.07-1.59-3.1-2.38-10.52,28.21,18.92,53.95,45.58,40.54-.99-.76-1.98-1.52-2.97-2.28-3.68,22.34,18.54,39.25,39.05,29.32-1.04-.6-2.09-1.2-3.13-1.8,1.22,21.25,28.09,28.28,39.45,10.18,1.47-2.34-2.23-4.48-3.69-2.16-9.06,14.43-30.57,9.07-31.6-8.03-.1-1.64-1.68-2.51-3.13-1.8-17.01,8.3-36.28-5.86-33.05-24.65.3-1.76-1.32-3.1-2.97-2.28-23.65,11.69-48.57-11.44-39.48-35.93.69-1.85-1.6-3.15-3.1-2.38-10.42,5.37-24.01,3.16-31.43-6.23-7.46-9.43-6.43-23.24,1.27-32.15,1.15-1.33.32-3.1-1.36-3.27-11.52-1.21-21.54-11.55-20.96-23.46.58-11.93,11.45-21.13,23.01-21.34,1.87-.03,2.51-2.13,1.43-3.45-7.24-8.83-6.35-23.28,2.92-30.43,9.49-7.32,23.7-4.11,30.66,5.1,1.02,1.35,3.3.14,2.33-1.36h0Z"/>
    <path class="cls-1" d="M2333.59,2355.34c13.61,2.74,27.2-6.72,31.27-19.76,3.75-12.02-5.16-28.91-19.57-22.92l1.41,3.35c9.02-4.65,14.4-15.17,11.92-25.22-2.63-10.65-13.38-17.44-24.04-16.53l1.72,3.01c8.5-11.58,7.96-28.73-2.2-39.2-8.46-8.72-28.46-13.89-37.76-3.56-.92,1.03-.03,2.67,1.36,2.33,5.75-1.42,10.61-3.79,16.75-3.33,21.45,1.59,30.37,25.26,18.4,41.75-.86,1.18.28,3.13,1.72,3.01,21.2-1.9,28.92,24.75,10.27,34.59-2.14,1.13-.26,4.07,1.85,3.17,9.67-4.12,21.2,7.79,13.08,23.1-5.16,9.72-15.39,14.46-26.03,15.03-.65.03-.87,1.06-.16,1.2h0Z"/>
    <path class="cls-1" d="M2146.9,2602.78c32.87-3.83,55.81,32.49,37.5,60.26-1.32,2,1.57,4.03,3.22,2.49,12.07-11.27,43.93,1.49,26.76,43.63-.53,1.29.81,2.91,2.14,2.81,29.48-2.26,42.11,33.5,18.74,50.16-2.49,1.78-.09,5.95,2.42,4.14,28.14-20.25,11.75-61.42-21.16-58.75.71.94,1.43,1.87,2.14,2.81,18.49-45.96-18.6-62.17-33.95-47.71,1.07.83,2.15,1.66,3.22,2.49,19.53-29.9-5.79-69.14-41.12-62.93-.33.06-.26.64.08.6h0Z"/>
    <path class="cls-1" d="M2296.13,2552.23c-6.67-.14-14.35,3.92-11.58,11.71,3.02,8.48,12.59,10.63,20.41,11.76v-3.74c-15.58,4.49-25.58,22.85-19.08,38.22,6.51,15.4,26.71,21,40.8,12.93-.83-1.07-1.66-2.15-2.48-3.22-15.35,13.99-11.96,39.73,7.65,47.83,20.14,8.32,41.35-8.44,39.2-29.82l-2.75,2.1c17.68,5.99,38.84-1.3,47.96-17.96,8.79-16.05,4.36-38.68-9.8-50.23.11.86.22,1.73.33,2.59,15.5-24.26-7.01-54-34.53-46.74.81.33,1.61.66,2.42.98-23.01-32.52-48.49-33.83-49.99,8.97,1.56-.21,3.11-.42,4.67-.63-2.79-12.4-17.11-22.97-29.78-17.76-14.07,5.79-12.41,24.71-5.22,35.07,1.49,2.14,4.82.28,3.54-2.07-4.63-8.5-8.04-24.67,4.24-28.84,9.91-3.37,20.47,5.61,22.63,14.87.62,2.67,4.6,2,4.67-.63.23-8.65,2.89-32.4,16.83-27.55,9.64,3.36,18.63,12.79,24.71,20.74.57.75,1.43,1.28,2.42.98,24.39-7.42,43.58,19.35,29.7,40.45-.48.73-.36,2.01.33,2.59,13.24,11.09,18.26,29.7,9.53,45.28-8.37,14.94-27.71,21.09-43.51,15.69-1.25-.43-2.89.73-2.75,2.1,1.72,17.66-14.52,32.46-31.93,26.43-18-6.23-21.22-29.13-7.67-41.55,1.74-1.59-.49-4.37-2.48-3.22-12.03,6.93-29.42,2.21-35.03-10.95-5.62-13.18,3.05-29.03,16.41-32.92,1.69-.49,2-3.46,0-3.74-7.72-1.09-17.5-2.8-17.34-11.26.1-4.92,3.15-5.73,7.75-6.42,1.2-.18.86-2.03-.28-2.06Z"/>
    <path class="cls-1" d="M2009.87,1995.52c1.59-10.59,13.69-19.03,24.02-13.78,9.16,4.65,11.26,17.26,5.67,25.3-1.29,1.86,1.25,4.29,3.09,3.09,13.68-8.94,33.35-7.16,44.3,5.45s9.63,33.53-2.04,45.56c-1.23,1.26-.44,4.03,1.58,3.81,36.06-4.01,44.03,65.77-9.89,88.64-1.72.73-1.36,3.26,0,4.09,11.74,7.23,17.45,23.07,11.5,35.86-6.23,13.39-21.46,17.7-34.94,14.48-2.19-.52-3.88,2.83-1.61,3.82,14.98,6.56,34.11-1.42,41.05-16.06,7.19-15.17.52-33.82-13.61-42.2v4.09c22.7-10.07,38.95-33.04,40.31-57.97,1.06-19.25-10.79-41.65-32.82-39.22l1.58,3.81c12.95-13.33,14.93-35.59,3.26-50.43-11.95-15.2-35.05-18.01-50.95-7.63l3.09,3.09c7.33-10.51,3.48-27.14-8.79-32.17-12.43-5.1-26.98,4.4-28.75,17.28-.35,2.57,3.56,3.71,3.95,1.09h0Z"/>
    <path class="cls-1" d="M2584.7,2101.12c-12.8,5.53-26.24,13.03-40.26,6.67-15.56-7.06-14.28-25.39-3.12-29.88,2.48-1,1.57-4.91-1.14-4.12-14.52,4.25-31.78-3.74-36.62-18.49-5.04-15.34,5.02-32.54,20.13-37.06,1.33-.4,1.97-1.92,1.28-3.14-5.69-9.95-1.35-24.85,9.99-28.74,11.66-4,24.11,5.18,25.76,16.8.34,2.4,3.56,1.74,4.24,0,7.78-19.92,44.74-4.01,25.79,29.44-.69,1.21-.11,3.01,1.35,3.33,13.07,2.82,23.72,14.22,24.36,27.84.68,14.27-9.94,26.75-23.52,29.92-3.43.8-1.97,6.2,1.46,5.3,15.45-4.08,27.61-18.9,26.81-35.22-.76-15.64-12.79-28.97-27.91-32.2.45,1.11.9,2.22,1.35,3.33,7.1-12.59,9.05-30.49-3.65-40.43-10.17-7.96-25.5-4.8-30.29,7.54h4.24c-2.09-14.51-18.66-25.14-32.59-19.24-13.01,5.51-17.94,22.53-11.09,34.5l1.28-3.14c-17.28,5.17-28.84,24.73-23.12,42.31,5.51,16.93,25.09,26.39,41.88,21.47l-1.14-4.12c-13.51,5.43-15.03,23.5-4.87,32.99,14.31,13.37,36.83,7.22,50.71-3.4,1.34-1.03.24-2.93-1.32-2.26h0Z"/>
    <path class="cls-1" d="M2275.83,2343.85c93.33,166.38,277.35,296.71,303.44,301.59,3.5.65,5.41-3,3.31-5.68-12.68-16.21-128.21-70.6-246.44-220.47-19.84-25.15-38.47-51.2-56.62-77.59-1.54-2.24-5.05-.27-3.69,2.16h0Z"/>
    <path class="cls-1" d="M2414.4,2620.61c1.84,2.02,34.29,19.35,36.96,19.93,4.36.94,6.78-2.95,3.65-6.27-1.36-1.44-3.49-2.36-5.23-3.25-31.69-16.26-30.14-15.67-32.16-15.95-3.17-.43-5.63,2.9-3.22,5.54h0Z"/>
    <path class="cls-3" d="M2282.82,1591.46c27.36,36.96,45.51,71.86,68.42,72,11.42.07,25.69-9.54,22.21-22.39-.85-3.15-6.04-2.62-5.82.79.73,11.77-14.66,21.23-29.53,10.38-10.87-7.94-15.8-16.82-37.55-43.31-5.24-6.38-11.06-12.21-16.28-18.57-.65-.79-2.06.27-1.44,1.11h0Z"/>
    <path class="cls-3" d="M2346.04,1616.23c26.07,18.97,27.05,19.57,29.88,19.36.95-.07,1.78-.92,1.47-1.93-.93-3.06-2.28-3.89-29.15-21.19-2.4-1.55-4.42,2.15-2.2,3.76h0Z"/>
    <path class="cls-3" d="M2185.37,1611.48c-8.49,21.23-9.47,36.18-22.95,105.86-2.17,11.22-5.54,22.97-5.24,34.47.03,1.34,2.15,2.19,2.76.75,4.28-10.02,3.99-13.17,14.84-70.15,4.41-23.15,11.08-47.19,11.03-70.87,0-.26-.34-.28-.43-.06h0Z"/>
    <path class="cls-3" d="M322.52,1337.62c23.11,18.5,45.84,30.19,80.07,64.64,40.95,41.22,47.95,63.06,64.45,80.39,1.85,1.94,5.29-.06,4.52-2.63-10.01-33.31-85.79-121.69-147.42-145.17-1.51-.58-2.89,1.75-1.61,2.77h0Z"/>
    <path class="cls-3" d="M564.82,945.63c10.67,5.98,64.27,14.31,108.56,68.57,9.17,11.23,16.81,23.53,25.7,34.95,1.25,1.61,3.61-.17,3.21-1.87-13.84-57.55-102.52-109.79-136.33-105.88-2.07.24-3.29,3.02-1.14,4.22h0Z"/>
    <path class="cls-3" d="M248.82,707.21c.16.44,1.43,3.06,1.11,3.57-1.64,2.55,10.43,16.12,5.71,29.84-2.53,7.34-10.24,13.84-18.21,10.99-6.22-2.22,2.47,14.23-26.85,29.28-1.12.58-.59,2.39.64,2.36,13.86-.39,25.69-14.55,27.93-28.62-1.01.57-2.01,1.14-3.02,1.72,9.59,3.38,19.06-3.38,22.98-11.98,5.1-11.19-.13-23.59-5.53-33.59-.35-.65-1.1-1.04-1.82-1.05-.55,0-1.99-2.35-2.39-2.84-.21-.25-.66.02-.55.32h0Z"/>
    <path class="cls-3" d="M516.81,1091.12c86.55,193.91,35.4,288.6,47.16,300.87,12.74,13.29,34.41-171.04-44.49-302.43-1.05-1.74-3.47-.22-2.67,1.56h0Z"/>
    <path class="cls-3" d="M597.17,1293.66c3.9,27.41,3.99,35.81,8.47,38.88.83.57,2.01.14,2.5-.66,2.78-4.54-.8-12.89-8.35-38.95-.5-1.73-2.86-.96-2.62.72h0Z"/>
    <path class="cls-3" d="M228.51,1465.75c12.86,12.86,19.33,19.68,21.68,20.95,3.79,2.05,6.82-.07,2.54-5.4-1.91-2.38-.71-1.05-19.72-20.06-2.9-2.9-7.41,1.6-4.51,4.51h0Z"/>
    <path class="cls-3" d="M270.92,1452.45c.35,9.76,11.29,16.48,17.99,12.4,1.38-.84.71-2.76-.78-2.88-.35-.03-.47-.1-3.19-.44.66.08-.72-.04-2.47-.73.56.22-.06-.04-.14-.07.4.18-1.4-.59-.56-.23-1.74-.76-3.34-2.04-2.62-1.49-1.38-1.1-2.35-2.38-2.16-2.12-1.06-1.42-1.47-2.6-1.34-2.26-.54-1.42-.63-2.4-.6-2.17-.36-2.96-4.22-2.49-4.12,0h0Z"/>
    <path class="cls-3" d="M504.35,743.35c7.07.09,15.85.74,22.61-1.53,2-.67,2.83-3.81-2.81-4.84-6.62-1.21-13.92-.73-19.8-.66-4.79.06-4.5,6.98,0,7.03Z"/>
    <path class="cls-1" d="M404.71,2112.15c-2.44,61.86-8.43,88.72,9.59,201.34,7.18,44.88,28.81,155.53,52.59,194.26,2.27,3.7,9.42,2.56,8.87-2.4-4.89-43.49-44.26-124.64-59.68-287.61-3.29-34.81-9.27-70.8-10.78-105.58-.02-.39-.58-.39-.6,0h0Z"/>
    <path class="cls-1" d="M516.39,2472.16c8.43,17.08,17.26,38.76,33.95,49.19,2.54,1.59,6.78-.43,6.42-3.68-2.25-20.16-18.24-37.74-30.32-53.26-4.7-6.03-13.07,1.64-10.05,7.75h0Z"/>
    <path class="cls-1" d="M2016.75,2480.88c5.4-18.13,12.66-36.18,12.98-55.21.06-3.64-4.56-4.39-6.42-1.74-10.97,15.62-15.72,34.78-22.06,52.67-3.43,9.7,12.53,14.25,15.5,4.27h0Z"/>
    <path class="cls-1" d="M2084.62,2450.88c1.91-3.63,1.72-3.24,2.1-7.32,1.81-19.3-20.4,4.82-9.07,9.61,2.45,1.03,5.66.19,6.97-2.28h0Z"/>
    <path class="cls-1" d="M2024.97,558.45c15.74,10.43,32.06,25.26,50.88,28.54,2.72.47,5.68-2.32,3.89-5.06-10.71-16.39-31.11-25.67-47.32-36.23-8-5.21-15.34,7.52-7.45,12.75h0Z"/>
    <path class="cls-1" d="M2102.05,516.47c13.27,20.56,14.72,23.72,19.77,26.93,2.39,1.52,4.71-.98,4.34-3.33-.91-5.72-3.39-8.4-16.46-28.07-3.13-4.72-10.76-.35-7.65,4.47h0Z"/>
    <path class="cls-1" d="M777.84,177.38c5.22,30.62,30.23,60.69,45.7,87.34,16.4,28.26,31.06,59.26,52.34,84.19,2.77,3.24,8.79-.2,7.29-4.24-11.45-30.74-31.4-58.58-48.14-86.66-15.73-26.4-30.01-63.02-54.13-82.4-1.45-1.17-3.37-.08-3.06,1.78h0Z"/>
    <path class="cls-1" d="M944.79,305.21c8.52-64.14,3.01-134.02-.79-198.56-.54-9.15-14.25-9.31-14.34,0-.63,64.88-2.7,135.48,9.05,199.38.69,3.76,5.66,2.3,6.08-.82h0Z"/>
    <path class="cls-1" d="M1006.13,302.01c9.5-17.8,17.44-36.36,25.29-54.94,7.56-17.9,18.05-37.22,19.93-56.63.26-2.66-3.82-4.45-5.52-2.29-10.85,13.85-15.7,31.76-22.07,48.06-8.19,20.99-16.21,42.14-22.26,63.85-.76,2.72,3.25,4.52,4.63,1.95h0Z"/>
    <path class="cls-1" d="M2343.3,1404.23c.39,0,.39-.6,0-.6s-.39.6,0,.6Z"/>
    <path class="cls-1" d="M2336.78,1400.45c35.8-42.81,62.46-95.96,85.65-146.67,1.5-3.28-2.78-5.85-4.86-2.84-31.64,45.92-63.61,96.13-81.96,148.83-.23.65.73,1.22,1.18.68h0Z"/>
    <path class="cls-1" d="M2410.82,1389.85c33.78-13.5,69.71-36.16,96.73-60.55,1.99-1.79-.1-5.78-2.74-4.7-26.72,10.94-81.55,46.97-96.59,60.78-1.87,1.72.08,5.47,2.6,4.47h0Z"/>
    <path class="cls-1" d="M2476.17,1453.63c80.78-9.55,81.58-8.19,93.53-12.92,3.43-1.36,4.79-7.76,0-8.41-12.85-1.73-14.61-.32-93.53,9.51-7.43.93-7.57,12.71,0,11.81h0Z"/>
  </g>
  <path class="cls-2" d="M945.46,2530.74c-4.63,2.15-7.45,6.89-7.21,11.99,5.85,122.37,50.72,237.95,128.57,332.54,7.21,8.76,21.4,4.14,22.09-7.19,2.37-39.22,4.73-78.44,7.1-117.66.49-8.14,8.53-13.63,16.29-11.11,35.59,11.53,71.19,23.06,106.78,34.59,12.32,3.99,21.73-11.04,12.87-20.48-75.37-80.19-124.6-181.28-141.21-290.07,0,0,0,0,0,0-48.43,22.46-96.85,44.92-145.28,67.38Z"/>
  <path class="cls-2" d="M894.21,2550.01c4.63,2.15,7.45,6.89,7.21,11.99-5.85,122.37-50.72,237.95-128.57,332.54-7.21,8.76-21.4,4.14-22.09-7.19-2.37-39.22-4.73-78.44-7.1-117.66-.49-8.14-8.53-13.63-16.29-11.11-35.59,11.53-71.19,23.06-106.78,34.59-12.32,3.99-21.73-11.04-12.87-20.48,75.37-80.19,124.6-181.28,141.21-290.07,0,0,0,0,0,0,48.43,22.46,96.85,44.92,145.28,67.38Z"/>
  <path class="cls-2" d="M578.25,2336.4c-14.68,9.69-16.12,31.13-2.81,42.62,31.64,27.33,46.64,69.89,34.34,114.39-4.63,16.75,7.69,33.36,25.04,34.17,45.23,2.1,73.11,37.94,70.59,80.77-1.02,17.44,13.97,30.87,31.22,28.13,39.55-6.29,77.16,11.73,97.84,44.3,9.76,15.38,31.31,17.82,43.41,4.21,35.02-39.36,90.82-50.69,138.41-28.57,16.32,7.58,35.11-2.72,38.13-20.46,8.25-48.49,50.31-83.14,99.47-81.76,18.17.51,31.75-17.28,26.4-34.66-16.83-54.77,1.22-109.32,41.46-144.59,12.74-11.17,12.68-31.45-.81-41.71-39.03-29.67-54.14-81.2-30.26-128.7,7.95-15.81-.98-35.05-18.29-38.74-40.91-8.72-72.77-40.56-81.55-81.46-3.58-16.67-21.97-25.78-37.47-18.68-45.66,20.9-94.85,10.25-127.8-23.44-12.02-12.28-32.05-10.95-41.73,3.25-22.95,33.66-63.42,46.58-101.73,29.48-16.23-7.24-34.45,2.24-38.26,19.6-10.44,47.52-50.83,81.71-99.42,84-17.8.84-29.79,19.03-24.12,35.91,15.3,45.58-1.94,95.44-42.06,121.92Z"/>
  <g>
    <path class="cls-3" d="M662.89,2345.3c6.37-118.75,108.46-218.96,226.03-225.07,84.52-4.39,165.57,40.18,209.08,108.39,76.5,119.93,28.82,276.67-93.63,337.87-5.33,2.66-122.96,58.85-233.93-13.03-71.45-46.28-111.88-127.35-107.54-208.16Z"/>
    <path class="cls-1" d="M665.56,2345.3c10.06-104.17,82.13-184.21,170.39-211.14,100.74-30.74,212.95,16.64,264.52,107.8,82.72,146.23-15.5,348.58-212.45,342.48-113.83-3.53-205.43-91.76-219.04-201.45-1.55-12.47-2.4-25.14-2.86-37.69-.16-4.29-5.93-4.01-6.47,0-13.59,101.19,67.05,220.3,186.13,244.98,72,14.93,159.29-1.9,220.88-62.12,68.34-66.81,91.93-171.72,56.45-260.82-39.86-100.09-146.73-164.82-254.14-149.68-115.05,16.21-206.55,119.42-208.76,227.64-.07,3.5,5.02,3.36,5.34,0Z"/>
  </g>
  <path class="cls-2" d="M715.95,2350.05c5.01-93.4,85.31-172.22,177.78-177.03,66.48-3.46,130.23,31.6,164.45,85.25,60.17,94.33,22.67,217.61-73.65,265.75-4.19,2.09-96.71,46.29-184-10.25-56.2-36.4-88-100.16-84.59-163.72Z"/>
  <path class="cls-1" d="M705.26,2629.67c6.29,14.69,29.37,14.07,42.07,12.14,17.06-2.6,37.62-9.94,53.3.85,19.93,13.72,27.04,51.37,58.5,51.35,7.63,0,17.04-2.86,19.89-10.55,1.5-4.05-3.37-6.38-6.51-5-4.9,2.15-12,9.67-25.39,2.38-18.82-10.26-24.72-40.66-48.89-50.36-20.8-8.34-44.01,2.91-66.93,3.33-13.81.26-15.8-4.76-22.39-7.79-2.54-1.17-4.72,1.17-3.66,3.66h0Z"/>
  <path class="cls-1" d="M954.6,2642.83c4.17,7.64,20.05,8.85,27.77,10.93,43.14,11.61,51.93,15.66,63.9,10.22,29.66-13.49,8.85-57.74,47.91-79.64,4.78-2.68,11.88-3.35,15.31-7.68,5.06-6.4-3.84-15-25.91.23-32.17,22.19-23.22,46.92-34.09,68.36-3.92,7.74-10.48,10.95-15.4,10.7-7.45-.38-16.29-2.62-45.37-9.19-23.93-5.41-29.13-7.49-34.04-4.21-.1.06-.13.18-.08.29h0Z"/>
  <path class="cls-1" d="M611.91,2325.35c11.03-7.6,19.21-37.11,21.13-51.31,1.75-12.93,1.93-45.74-7.89-54.33-.88-.77-2.56-.59-2.82.74-1.49,7.74,2.53,16.82,3.44,24.56,5.43,46.14-14.51,69.05-16.33,78.42-.26,1.31,1.17,2.81,2.48,1.91h0Z"/>
  <path class="cls-1" d="M693.98,2180.74c13.84-8.8,19.34-11.72,20.11-14.53.97-3.53-2.64-6.1-8.51-2.13-1.68,1.14-11.87,8.03-15.29,10.34-4.32,2.92-.05,8.7,3.69,6.31h0Z"/>
  <path class="cls-1" d="M1114.99,2147.88c8.23,21.14,31.7,29.41,31.59,20.91-.04-3.48-4.61-4.28-7.36-5.4,2.66,1.09-11.77-3.18-18.44-17.94-1.46-3.23-7.09-.91-5.79,2.44h0Z"/>
  <path class="cls-1" d="M1012.63,2216.74c34.28,35.36,56.49,68.58,65.12,119.44,7.73,45.57-.13,101.44-31.66,129.69-5.98,5.36-12.84,8.29-19.75,12.13-4.06,2.26-1.05,7.5,2.93,6.94,14.51-2.07,27.41-15.78,35.47-27.08,46.14-64.75,26.68-193.02-50.73-242.89-1.09-.7-2.24.86-1.36,1.77h0Z"/>
  <path class="cls-1" d="M764.77,2465.52c.38,3.53-.92,2.39,18.62,19.16,5.25,4.5,8.5,8.19,11.27,6.24,2.36-1.66,2.11-4.32.74-5.74-3.15-3.27-19.12-16.02-24.09-19.89-2.13-1.66-2.17-1.69-4.78-1.52-.87.05-1.87.77-1.76,1.76h0Z"/>
  <path class="cls-1" d="M827.03,2820.19c7.29.37,29.9-29.39,28.42-48.24-.32-4.09-5.95-5.09-7.25-.98-1.64,5.15-2.77,23.35-19.49,40.57-1.53,1.58-3.76,3.17-4.08,5.5-.23,1.67.65,3.07,2.41,3.16Z"/>
  <path class="cls-1" d="M785.78,2824.48c-.04-.21-.69-1.99-.8-2.06l.16.37c-.5-1.53-1.16-1.62-1.72-4.5-.99-5.09,2.28-7.1.92-10.65-1.04-2.72-4.5-2.29-6.34.31-4.21,5.97-1.5,18.24,4.23,20.08,1.8.58,4.03-.92,3.55-3.55h0Z"/>
  <path class="cls-1" d="M967.34,2707.65c15.64,44.11,40.74,85.85,78.58,122.74,10.35,10.09,22.31,23.05,36.18,28.16,9.63,3.55,21.53.7,24.29-9.95,1.75-6.77,1.36-8.27-.53-58.86-1.69-45.27-.84-46.13-2.57-55.33-.96-5.07-7.78-3.2-8.29,1.12-2.01,17.03,5.75,100.7,1.98,112.21.49-1.49-.09.17-.49.65-.31.37.87-.94.07-.1-6.84,7.27-17.02-.66-24.65-6.93-40.7-33.43-76.62-79.91-99.81-135.03-1.19-2.83-5.83-1.75-4.75,1.31h0Z"/>
</svg>