<?xml version="1.0" encoding="utf-8"?>
<!-- Generator: Adobe Illustrator 29.8.2, SVG Export Plug-In . SVG Version: 9.03 Build 0)  -->
<svg version="1.0" id="Vrstva_1" xmlns="http://www.w3.org/2000/svg" xmlns:xlink="http://www.w3.org/1999/xlink" x="0px" y="0px"
	 viewBox="0 0 935.73 180" style="enable-background:new 0 0 935.73 180;" xml:space="preserve">
<style type="text/css">
	.st0{clip-path:url(#SVGID_00000142136493182076278130000015502275215647201673_);}
	.st1{clip-path:url(#SVGID_00000103952890426667220900000006233064139874012057_);}
	.st2{clip-path:url(#SVGID_00000183216201972272185870000000778642606868499858_);}
	.st3{clip-path:url(#SVGID_00000172423453571497214990000012896947562421498504_);}
	.st4{clip-path:url(#SVGID_00000082355976745282157660000008059662189240022420_);}
	.st5{fill:none;stroke:#FFCE2E;stroke-width:4.4803;stroke-miterlimit:8.9607;}
	.st6{clip-path:url(#SVGID_00000029031752477716135520000011014445595625200831_);}
</style>
<g transform="matrix(1, 0, 0, 1, 19, 77)">
	<g>
		<defs>
			<rect id="SVGID_1_" x="-27.36" y="-77" width="957.33" height="180"/>
		</defs>
		<clipPath id="SVGID_00000065069516295329877150000015116869942052037277_">
			<use xlink:href="#SVGID_1_"  style="overflow:visible;"/>
		</clipPath>
		<g style="clip-path:url(#SVGID_00000065069516295329877150000015116869942052037277_);">
			<g>
				<defs>
					<rect id="SVGID_00000149369644658191077490000011843807464352444845_" x="-26.05" y="-62.33" width="955.65" height="110.67"/>
				</defs>
				<clipPath id="SVGID_00000060728730318913005740000008831747725633745041_">
					<use xlink:href="#SVGID_00000149369644658191077490000011843807464352444845_"  style="overflow:visible;"/>
				</clipPath>
				<g style="clip-path:url(#SVGID_00000060728730318913005740000008831747725633745041_);">
					<g transform="matrix(1, 0, 0, 1, 0.000000000000007105, 11)">
						<g>
							<defs>
								
									<rect id="SVGID_00000170999753631248879190000012148021488586312123_" x="-27.36" y="-73.33" width="957.33" height="110.67"/>
							</defs>
							<clipPath id="SVGID_00000181783865229038601900000005221370288368664745_">
								<use xlink:href="#SVGID_00000170999753631248879190000012148021488586312123_"  style="overflow:visible;"/>
							</clipPath>
							<g style="clip-path:url(#SVGID_00000181783865229038601900000005221370288368664745_);">
								<g>
									<g transform="translate(2.522287, 65.591612)">
										<g>
											<path d="M16.25-99.51c-0.37-3.17-1.9-5.62-4.56-7.38s-5.94-2.62-9.81-2.62c-4.25,0-7.68,1.01-10.27,3.02
												c-2.58,2.02-3.88,4.55-3.88,7.6c0,2.29,0.7,4.15,2.1,5.56c1.42,1.41,3.09,2.5,5.02,3.29c1.93,0.78,3.69,1.38,5.27,1.79
												l6.5,1.75c1.67,0.43,3.53,1.04,5.58,1.81c2.05,0.77,4.03,1.81,5.92,3.15c1.89,1.32,3.44,3.02,4.67,5.08
												c1.23,2.06,1.85,4.58,1.85,7.58c0,3.47-0.91,6.6-2.71,9.4c-1.81,2.79-4.44,5.02-7.9,6.67
												c-3.45,1.64-7.62,2.46-12.54,2.46c-6.88,0-12.34-1.62-16.4-4.88c-4.04-3.25-6.25-7.51-6.63-12.77h8
												c0.21,2.43,1.03,4.43,2.46,6c1.43,1.57,3.24,2.74,5.44,3.5c2.21,0.77,4.58,1.15,7.13,1.15c2.96,0,5.61-0.48,7.96-1.46
												c2.36-0.97,4.23-2.32,5.6-4.06c1.37-1.73,2.06-3.78,2.06-6.13c0-2.12-0.6-3.85-1.79-5.19c-1.18-1.33-2.74-2.42-4.69-3.25
												c-1.93-0.83-4.02-1.56-6.27-2.19l-7.88-2.25c-5-1.44-8.97-3.5-11.9-6.17c-2.92-2.67-4.38-6.16-4.38-10.48
												c0-3.58,0.97-6.71,2.92-9.4c1.96-2.68,4.59-4.76,7.9-6.25c3.3-1.48,7-2.23,11.08-2.23c4.12,0,7.79,0.74,11,2.21
												c3.22,1.46,5.77,3.47,7.65,6.02c1.89,2.54,2.89,5.43,3,8.65H16.25z"/>
										</g>
									</g>
								</g>
								<g>
									<g transform="translate(51.24776, 65.591612)">
										<g>
											<path d="M51.51-83.49c0,6.75-1.22,12.59-3.67,17.52c-2.43,4.92-5.78,8.71-10.04,11.38c-4.25,2.67-9.1,4-14.56,4
												s-10.32-1.33-14.58-4c-4.25-2.67-7.6-6.46-10.04-11.38c-2.43-4.93-3.65-10.77-3.65-17.52s1.21-12.58,3.65-17.5
												c2.44-4.93,5.79-8.73,10.04-11.4c4.26-2.67,9.12-4,14.58-4s10.31,1.33,14.56,4c4.26,2.67,7.61,6.47,10.04,11.4
												C50.29-96.07,51.51-90.24,51.51-83.49z M44.01-83.49c0-5.54-0.93-10.22-2.77-14.04c-1.85-3.82-4.34-6.71-7.48-8.67
												c-3.14-1.96-6.65-2.94-10.52-2.94s-7.39,0.98-10.52,2.94c-3.14,1.96-5.64,4.85-7.48,8.67c-1.85,3.82-2.77,8.5-2.77,14.04
												c0,5.54,0.92,10.22,2.77,14.04c1.84,3.82,4.34,6.71,7.48,8.67c3.14,1.96,6.65,2.94,10.52,2.94s7.38-0.98,10.52-2.94
												c3.14-1.96,5.63-4.84,7.48-8.67C43.08-73.27,44.01-77.95,44.01-83.49z"/>
										</g>
									</g>
								</g>
								<g>
									<g transform="translate(108.134501, 65.591612)">
										<g>
											<path d="M58.47-115.51h7.75v42.4c0,4.81-1.14,8.91-3.42,12.31c-2.27,3.39-5.29,5.98-9.06,7.77
												c-3.78,1.79-7.92,2.69-12.42,2.69s-8.64-0.9-12.42-2.69c-3.78-1.79-6.81-4.38-9.08-7.77c-2.27-3.4-3.4-7.51-3.4-12.31
												v-42.4h7.77v42.4c0,3.33,0.79,6.16,2.38,8.46c1.58,2.31,3.67,4.06,6.27,5.27c2.61,1.2,5.44,1.79,8.48,1.79
												s5.86-0.59,8.48-1.79c2.61-1.21,4.71-2.96,6.29-5.27c1.58-2.3,2.38-5.12,2.38-8.46V-115.51z"/>
										</g>
									</g>
								</g>
								<g>
									<g transform="translate(163.70795, 65.591612)">
										<g>
											<path d="M54.73-51.47H34.96v-64.04H55.6c6.21,0,11.52,1.28,15.94,3.83c4.43,2.56,7.82,6.22,10.17,10.98
												c2.36,4.77,3.54,10.46,3.54,17.08c0,6.67-1.19,12.41-3.56,17.21c-2.38,4.81-5.84,8.5-10.4,11.08
												C66.75-52.75,61.23-51.47,54.73-51.47z M42.73-58.34h11.5c7.94,0,13.84-2.26,17.71-6.77c3.88-4.51,5.81-10.68,5.81-18.5
												c0-7.75-1.91-13.85-5.71-18.31c-3.79-4.47-9.44-6.71-16.94-6.71H42.73V-58.34z"/>
										</g>
									</g>
								</g>
								<g>
									<g transform="translate(217.780476, 65.591612)">
										<g>
											<path d="M103.77-115.51v64.04h-7.5l-34.9-50.29h-0.62v50.29h-7.77v-64.04h7.52l35.02,50.42h0.62v-50.42H103.77z"/>
										</g>
									</g>
								</g>
								<g>
									<g transform="translate(274.104386, 65.591612)">
										<g>
											<path d="M79.53-115.51v64.04h-7.77v-64.04H79.53z M72.26-122.03l7.65-14.5h8.62l-9.75,14.5H72.26z"/>
										</g>
									</g>
								</g>
								<g>
									<g transform="translate(298.158487, 65.591612)">
									</g>
								</g>
								<g>
									<g transform="translate(323.338279, 65.591612)">
										<g>
											<path d="M88.17-51.47v-64.04h21.65c5.03,0,9.14,0.91,12.33,2.71c3.21,1.79,5.58,4.22,7.13,7.29
												c1.54,3.07,2.31,6.49,2.31,10.27c0,3.77-0.77,7.2-2.31,10.29c-1.53,3.08-3.89,5.54-7.08,7.35
												c-3.18,1.82-7.27,2.73-12.25,2.73h-14v23.4H88.17z M95.94-81.74h13.75c5.15,0,8.81-1.29,10.98-3.88
												c2.18-2.58,3.27-5.79,3.27-9.62c0-3.86-1.1-7.05-3.29-9.58c-2.18-2.54-5.88-3.81-11.08-3.81H95.94V-81.74z"/>
										</g>
									</g>
								</g>
								<g>
									<g transform="translate(371.876151, 65.591612)">
										<g>
											<path d="M104.35-51.47v-64.04h21.65c5,0,9.1,0.85,12.31,2.54c3.22,1.7,5.6,4.03,7.15,7c1.54,2.96,2.31,6.32,2.31,10.08
												c0,4.27-0.98,7.98-2.94,11.15c-1.95,3.16-4.96,5.43-9.04,6.81l14.48,26.46h-9l-13.52-25.04
												c-0.52,0.02-1.06,0.02-1.62,0.02h-14v25.02H104.35z M112.12-83.49h13.75c5.12,0,8.78-1.1,10.96-3.31
												c2.19-2.21,3.29-5.23,3.29-9.08c0-3.84-1.1-6.93-3.29-9.25c-2.2-2.33-5.89-3.5-11.08-3.5h-13.62V-83.49z M117.85-134.78
												l6.52,8.75l6.5-8.75h7v0.5l-10.12,13h-6.75l-10.15-13v-0.5H117.85z"/>
										</g>
									</g>
								</g>
								<g>
									<g transform="translate(420.695454, 65.591612)">
										<g>
											<path d="M120.62-51.47v-64.04h38.67v6.88h-30.9v21.65h28.9v6.88h-28.9v21.77h31.4v6.88H120.62z"/>
										</g>
									</g>
								</g>
								<g>
									<g transform="translate(466.794314, 65.591612)">
										<g>
											<path d="M135.99-51.47v-64.04h7.77v31.77h0.75l28.77-31.77h10.12l-26.9,28.9l26.9,35.15h-9.38l-22.27-29.77l-8,9v20.77
												H135.99z"/>
										</g>
									</g>
								</g>
								<g>
									<g transform="translate(516.457879, 65.591612)">
										<g>
											<path d="M152.54-51.47v-64.04h7.77v57.17h29.77v6.88H152.54z"/>
										</g>
									</g>
								</g>
								<g>
									<g transform="translate(560.211557, 65.591612)">
										<g>
											<path d="M169.75-51.47h-8.12l23.52-64.04h8l23.52,64.04h-8.12l-6.46-18.15h-25.88L169.75-51.47z M178.65-76.49h21
												l-10.25-28.9h-0.5L178.65-76.49z"/>
										</g>
									</g>
								</g>
								<g>
									<g transform="translate(611.469843, 65.591612)">
										<g>
											<path d="M203.98-51.47h-19.77v-64.04h20.65c6.21,0,11.52,1.28,15.94,3.83c4.43,2.56,7.82,6.22,10.17,10.98
												c2.36,4.77,3.54,10.46,3.54,17.08c0,6.67-1.19,12.41-3.56,17.21c-2.38,4.81-5.84,8.5-10.4,11.08
												C216-52.75,210.48-51.47,203.98-51.47z M191.98-58.34h11.5c7.94,0,13.84-2.26,17.71-6.77c3.88-4.51,5.81-10.68,5.81-18.5
												c0-7.75-1.91-13.85-5.71-18.31c-3.79-4.47-9.44-6.71-16.94-6.71h-12.38V-58.34z"/>
										</g>
									</g>
								</g>
								<g>
									<g transform="translate(665.542369, 65.591612)">
										<g>
											<path d="M196.73-115.51h8.88l17.77,29.9h0.75l17.77-29.9h8.88l-23.15,37.65v26.4h-7.75v-26.4L196.73-115.51z"/>
										</g>
									</g>
								</g>
							</g>
						</g>
					</g>
				</g>
			</g>
			<g transform="matrix(1, 0, 0, 1, 231, 93)">
				<g>
					<defs>
						<rect id="SVGID_00000074402756956237220040000003984422113365658519_" x="49.64" y="-46" width="342.67" height="34.67"/>
					</defs>
					<clipPath id="SVGID_00000131344389756334884850000011901806860599352970_">
						<use xlink:href="#SVGID_00000074402756956237220040000003984422113365658519_"  style="overflow:visible;"/>
					</clipPath>
					<g style="clip-path:url(#SVGID_00000131344389756334884850000011901806860599352970_);">
						<g>
							<g transform="translate(1.39328, 20.44083)">
								<g>
									<path d="M54.75-58.39v19.21h-2.31v-19.21H54.75z"/>
								</g>
							</g>
						</g>
						<g>
							<g transform="translate(14.556126, 20.44083)">
								<g>
									<path d="M56.82-39.19v-19.21h2.31v17.15h8.94v2.06H56.82z"/>
								</g>
							</g>
						</g>
						<g>
							<g transform="translate(33.630339, 20.44083)">
								<g>
									<path d="M79.39-48.79c0,2.03-0.37,3.78-1.1,5.25c-0.74,1.47-1.74,2.61-3.02,3.42c-1.27,0.81-2.72,1.21-4.35,1.21
										c-1.64,0-3.1-0.4-4.38-1.21c-1.28-0.8-2.29-1.94-3.02-3.42c-0.72-1.47-1.08-3.22-1.08-5.25c0-2.03,0.36-3.78,1.08-5.25
										c0.73-1.48,1.74-2.62,3.02-3.42c1.28-0.8,2.73-1.21,4.38-1.21c1.64,0,3.09,0.41,4.35,1.21c1.28,0.79,2.28,1.93,3.02,3.42
										C79.02-52.57,79.39-50.82,79.39-48.79z M77.14-48.79c0-1.67-0.28-3.07-0.83-4.21c-0.56-1.15-1.31-2.02-2.25-2.6
										c-0.95-0.58-1.99-0.88-3.15-0.88c-1.17,0-2.22,0.29-3.17,0.88c-0.95,0.58-1.7,1.45-2.25,2.6
										c-0.54,1.14-0.81,2.54-0.81,4.21c0,1.67,0.27,3.07,0.81,4.21c0.55,1.14,1.3,2.01,2.25,2.6c0.94,0.58,2,0.88,3.17,0.88
										c1.15,0,2.2-0.29,3.15-0.88c0.94-0.59,1.69-1.46,2.25-2.6C76.86-45.72,77.14-47.12,77.14-48.79z"/>
								</g>
							</g>
						</g>
						<g>
							<g transform="translate(56.645474, 20.44083)">
								<g>
									<path d="M86.08-58.39v19.21h-2.25L73.35-54.27h-0.19v15.08h-2.31v-19.21h2.25l10.5,15.12h0.19v-15.12H86.08z"/>
								</g>
							</g>
						</g>
						<g>
							<g transform="translate(79.491696, 20.44083)">
								<g>
									<path d="M79.24-39.19H76.8l7.06-19.21h2.4l7.06,19.21h-2.44l-1.94-5.44h-7.77L79.24-39.19z M81.91-46.69h6.31l-3.08-8.67
										h-0.15L81.91-46.69z"/>
								</g>
							</g>
						</g>
						<g>
							<g transform="translate(100.817861, 20.44083)">
							</g>
						</g>
						<g>
							<g transform="translate(114.31848, 20.44083)">
								<g>
									<path d="M89.43-39.19v-1.69l10.35-15.46H89.33v-2.06h13.23v1.69L92.2-41.25h10.48v2.06H89.43z M94.06-64.19l1.94,2.63
										l1.96-2.63h2.1v0.15l-3.04,3.92h-2.02l-3.04-3.92v-0.15H94.06z"/>
								</g>
							</g>
						</g>
						<g>
							<g transform="translate(134.631273, 20.44083)">
								<g>
									<path d="M99.16-58.39v19.21h-2.31v-19.21H99.16z M96.99-60.35l2.29-4.35h2.58l-2.92,4.35H96.99z"/>
								</g>
							</g>
						</g>
						<g>
							<g transform="translate(147.794118, 20.44083)">
								<g>
									<path d="M107.15-39.19h-5.92v-19.21h6.19c1.86,0,3.45,0.39,4.77,1.15c1.33,0.77,2.35,1.86,3.06,3.29
										c0.71,1.43,1.06,3.14,1.06,5.12c0,2-0.36,3.72-1.08,5.17c-0.71,1.45-1.74,2.56-3.1,3.33
										C110.77-39.57,109.11-39.19,107.15-39.19z M103.55-41.25h3.46c2.39,0,4.16-0.67,5.31-2.02c1.17-1.36,1.75-3.21,1.75-5.56
										c0-2.32-0.57-4.15-1.71-5.48c-1.14-1.34-2.83-2.02-5.08-2.02h-3.73V-41.25z"/>
								</g>
							</g>
						</g>
						<g>
							<g transform="translate(169.964767, 20.44083)">
								<g>
									<path d="M108.63-39.19v-19.21h2.31v9.52h0.23l8.62-9.52h3.04l-8.06,8.67l8.06,10.54h-2.81l-6.67-8.94l-2.42,2.71v6.23
										H108.63z"/>
								</g>
							</g>
						</g>
						<g>
							<g transform="translate(190.812394, 20.44083)">
								<g>
									<path d="M131.78-48.79c0,2.03-0.37,3.78-1.1,5.25c-0.74,1.47-1.74,2.61-3.02,3.42c-1.27,0.81-2.72,1.21-4.35,1.21
										c-1.64,0-3.1-0.4-4.38-1.21c-1.28-0.8-2.29-1.94-3.02-3.42c-0.72-1.47-1.08-3.22-1.08-5.25c0-2.03,0.36-3.78,1.08-5.25
										c0.73-1.48,1.74-2.62,3.02-3.42c1.28-0.8,2.73-1.21,4.38-1.21c1.64,0,3.09,0.41,4.35,1.21c1.28,0.79,2.28,1.93,3.02,3.42
										C131.41-52.57,131.78-50.82,131.78-48.79z M129.53-48.79c0-1.67-0.28-3.07-0.83-4.21c-0.56-1.15-1.31-2.02-2.25-2.6
										c-0.95-0.58-1.99-0.88-3.15-0.88c-1.17,0-2.22,0.29-3.17,0.88c-0.95,0.58-1.7,1.45-2.25,2.6
										c-0.54,1.14-0.81,2.54-0.81,4.21c0,1.67,0.27,3.07,0.81,4.21c0.55,1.14,1.3,2.01,2.25,2.6c0.94,0.58,2,0.88,3.17,0.88
										c1.15,0,2.2-0.29,3.15-0.88c0.94-0.59,1.69-1.46,2.25-2.6C129.25-45.72,129.53-47.12,129.53-48.79z"/>
								</g>
							</g>
						</g>
						<g>
							<g transform="translate(213.827529, 20.44083)">
								<g>
									<path d="M124.02-58.39l5.71,16.17h0.23l5.71-16.17h2.44l-7.06,19.21h-2.4l-7.06-19.21H124.02z"/>
								</g>
							</g>
						</g>
						<g>
							<g transform="translate(235.153693, 20.44083)">
								<g>
									<path d="M131.13-39.19h-2.44l7.06-19.21h2.4l7.06,19.21h-2.44l-1.94-5.44h-7.77L131.13-39.19z M133.79-46.69h6.31
										l-3.08-8.67h-0.15L133.79-46.69z M135.94-60.35l2.29-4.35h2.58l-2.92,4.35H135.94z"/>
								</g>
							</g>
						</g>
					</g>
				</g>
			</g>
			<g>
				<defs>
					<rect id="SVGID_00000163789636300653366570000018179825419335138738_" x="572.64" y="96.3" width="346.98" height="5.75"/>
				</defs>
				<clipPath id="SVGID_00000114791598689979943680000007766510080127601036_">
					<use xlink:href="#SVGID_00000163789636300653366570000018179825419335138738_"  style="overflow:visible;"/>
				</clipPath>
				<g style="clip-path:url(#SVGID_00000114791598689979943680000007766510080127601036_);">
					<path class="st5" d="M575.99,99.48h340.54"/>
				</g>
			</g>
			<g>
				<defs>
					<rect id="SVGID_00000172427939318680956080000005537161761498339749_" x="-21.99" y="-76.4" width="343.96" height="4.75"/>
				</defs>
				<clipPath id="SVGID_00000154388782307771038900000004181387117154459017_">
					<use xlink:href="#SVGID_00000172427939318680956080000005537161761498339749_"  style="overflow:visible;"/>
				</clipPath>
				<g style="clip-path:url(#SVGID_00000154388782307771038900000004181387117154459017_);">
					<path class="st5" d="M-18.93-74.14h338.47"/>
				</g>
			</g>
		</g>
	</g>
</g>
</svg>
